<svg xmlns="http://www.w3.org/2000/svg" width="1051.1326904296875" height="1053.2105712890625" viewBox="-188.68075561523438 -127.7502670288086 1051.1326904296875 1053.2105712890625"><title>Neo4j Graph Visualization</title><desc>Created using Neo4j (http://www.neo4j.com/)</desc><g class="layer relationships"><g class="relationship" transform="translate(419.4905012708206 387.6046828912984) rotate(208.7146851109112)"><path class="b-outline" fill="#4C8EDA" stroke="none" d="M 32.5 1 L 125.35168861653887 1 L 125.35168861653887 -1 L 32.5 -1 Z M 178.24231361653887 1 L 271.09400223307773 1 L 271.09400223307773 4 L 279.09400223307773 0 L 271.09400223307773 -4 L 271.09400223307773 -1 L 178.24231361653887 -1 Z"/><text text-anchor="middle" pointer-events="none" font-size="8px" fill="#000000" x="151.79700111653887" y="3" transform="rotate(180 151.79700111653887 0)" font-family="Helvetica Neue, Helvetica, Arial, sans-serif">RELATES_TO</text></g><g class="relationship" transform="translate(419.4905012708206 387.6046828912984) rotate(301.47252520673237)"><path class="b-outline" fill="#4C8EDA" stroke="none" d="M 32.5 1 L 99.74856927818504 1 L 99.74856927818504 -1 L 32.5 -1 Z M 152.63919427818504 1 L 219.8877635563701 1 L 219.8877635563701 4 L 227.8877635563701 0 L 219.8877635563701 -4 L 219.8877635563701 -1 L 152.63919427818504 -1 Z"/><text text-anchor="middle" pointer-events="none" font-size="8px" fill="#000000" x="126.19388177818504" y="3" font-family="Helvetica Neue, Helvetica, Arial, sans-serif">RELATES_TO</text></g><g class="relationship" transform="translate(419.4905012708206 387.6046828912984) rotate(299.5341631149424)"><path class="b-outline" fill="#4C8EDA" stroke="none" d="M 32.5 1 L 152.50291452758734 1 L 152.50291452758734 -1 L 32.5 -1 Z M 205.39353952758734 1 L 325.3964540551747 1 L 325.3964540551747 4 L 333.3964540551747 0 L 325.3964540551747 -4 L 325.3964540551747 -1 L 205.39353952758734 -1 Z"/><text text-anchor="middle" pointer-events="none" font-size="8px" fill="#000000" x="178.94822702758734" y="3" font-family="Helvetica Neue, Helvetica, Arial, sans-serif">RELATES_TO</text></g><g class="relationship" transform="translate(419.4905012708206 387.6046828912984) rotate(292.1616917718638)"><path class="b-outline" fill="#4C8EDA" stroke="none" d="M 32.5 1 L 221.12859676056112 1 L 221.12859676056112 -1 L 32.5 -1 Z M 274.0192217605611 1 L 462.64781852112225 1 L 462.64781852112225 4 L 470.64781852112225 0 L 462.64781852112225 -4 L 462.64781852112225 -1 L 274.0192217605611 -1 Z"/><text text-anchor="middle" pointer-events="none" font-size="8px" fill="#000000" x="247.57390926056112" y="3" font-family="Helvetica Neue, Helvetica, Arial, sans-serif">RELATES_TO</text></g><g class="relationship" transform="translate(419.4905012708206 387.6046828912984) rotate(231.29551900287754)"><path class="b-outline" fill="#4C8EDA" stroke="none" d="M 32.5 1 L 39.90143667925042 1 L 39.90143667925042 -1 L 32.5 -1 Z M 92.79206167925042 1 L 100.19349835850085 1 L 100.19349835850085 4 L 108.19349835850085 0 L 100.19349835850085 -4 L 100.19349835850085 -1 L 92.79206167925042 -1 Z"/><text text-anchor="middle" pointer-events="none" font-size="8px" fill="#000000" x="66.34674917925042" y="3" transform="rotate(180 66.34674917925042 0)" font-family="Helvetica Neue, Helvetica, Arial, sans-serif">RELATES_TO</text></g><g class="relationship" transform="translate(419.4905012708206 387.6046828912984) rotate(497.1755786129809)"><path class="b-outline" fill="#4C8EDA" stroke="none" d="M 32.5 1 L 124.94407421851233 1 L 124.94407421851233 -1 L 32.5 -1 Z M 177.83469921851233 1 L 270.27877343702465 1 L 270.27877343702465 4 L 278.27877343702465 0 L 270.27877343702465 -4 L 270.27877343702465 -1 L 177.83469921851233 -1 Z"/><text text-anchor="middle" pointer-events="none" font-size="8px" fill="#000000" x="151.38938671851233" y="3" transform="rotate(180 151.38938671851233 0)" font-family="Helvetica Neue, Helvetica, Arial, sans-serif">RELATES_TO</text></g><g class="relationship" transform="translate(419.4905012708206 387.6046828912984) rotate(200.3553313025596)"><path class="b-outline" fill="#4C8EDA" stroke="none" d="M 32.5 1 L 71.13464249380641 1 L 71.13464249380641 -1 L 32.5 -1 Z M 124.02526749380641 1 L 162.65990998761282 1 L 162.65990998761282 4 L 170.65990998761282 0 L 162.65990998761282 -4 L 162.65990998761282 -1 L 124.02526749380641 -1 Z"/><text text-anchor="middle" pointer-events="none" font-size="8px" fill="#000000" x="97.57995499380641" y="3" transform="rotate(180 97.57995499380641 0)" font-family="Helvetica Neue, Helvetica, Arial, sans-serif">RELATES_TO</text></g><g class="relationship" transform="translate(419.4905012708206 387.6046828912984) rotate(442.61983185224074)"><path class="b-outline" fill="#4C8EDA" stroke="none" d="M 32.5 1 L 67.3375888478882 1 L 67.3375888478882 -1 L 32.5 -1 Z M 120.2282138478882 1 L 155.0658026957764 1 L 155.0658026957764 4 L 163.0658026957764 0 L 155.0658026957764 -4 L 155.0658026957764 -1 L 120.2282138478882 -1 Z"/><text text-anchor="middle" pointer-events="none" font-size="8px" fill="#000000" x="93.7829013478882" y="3" font-family="Helvetica Neue, Helvetica, Arial, sans-serif">RELATES_TO</text></g><g class="relationship" transform="translate(419.4905012708206 387.6046828912984) rotate(193.9730971133166)"><path class="b-outline" fill="#4C8EDA" stroke="none" d="M 32.5 1 L 245.90692967461717 1 L 245.90692967461717 -1 L 32.5 -1 Z M 298.7975546746172 1 L 512.2044843492343 1 L 512.2044843492343 4 L 520.2044843492343 0 L 512.2044843492343 -4 L 512.2044843492343 -1 L 298.7975546746172 -1 Z"/><text text-anchor="middle" pointer-events="none" font-size="8px" fill="#000000" x="272.3522421746172" y="3" transform="rotate(180 272.3522421746172 0)" font-family="Helvetica Neue, Helvetica, Arial, sans-serif">RELATES_TO</text></g><g class="relationship" transform="translate(419.4905012708206 387.6046828912984) rotate(323.8451657033448)"><path class="b-outline" fill="#4C8EDA" stroke="none" d="M 32.5 1 L 48.264743993287155 1 L 48.264743993287155 -1 L 32.5 -1 Z M 101.15536899328715 1 L 116.92011298657431 1 L 116.92011298657431 4 L 124.92011298657431 0 L 116.92011298657431 -4 L 116.92011298657431 -1 L 101.15536899328715 -1 Z"/><text text-anchor="middle" pointer-events="none" font-size="8px" fill="#000000" x="74.71005649328715" y="3" font-family="Helvetica Neue, Helvetica, Arial, sans-serif">RELATES_TO</text></g><g class="relationship" transform="translate(419.4905012708206 387.6046828912984) rotate(252.96420194350782)"><path class="b-outline" fill="#4C8EDA" stroke="none" d="M 32.5 1 L 179.0477712625781 1 L 179.0477712625781 -1 L 32.5 -1 Z M 231.9383962625781 1 L 378.4861675251562 1 L 378.4861675251562 4 L 386.4861675251562 0 L 378.4861675251562 -4 L 378.4861675251562 -1 L 231.9383962625781 -1 Z"/><text text-anchor="middle" pointer-events="none" font-size="8px" fill="#000000" x="205.4930837625781" y="3" transform="rotate(180 205.4930837625781 0)" font-family="Helvetica Neue, Helvetica, Arial, sans-serif">RELATES_TO</text></g><g class="relationship" transform="translate(419.4905012708206 387.6046828912984) rotate(277.94657283221176)"><path class="b-outline" fill="#4C8EDA" stroke="none" d="M 32.5 1 L 193.00016661630653 1 L 193.00016661630653 -1 L 32.5 -1 Z M 245.89079161630653 1 L 406.39095823261306 1 L 406.39095823261306 4 L 414.39095823261306 0 L 406.39095823261306 -4 L 406.39095823261306 -1 L 245.89079161630653 -1 Z"/><text text-anchor="middle" pointer-events="none" font-size="8px" fill="#000000" x="219.44547911630653" y="3" font-family="Helvetica Neue, Helvetica, Arial, sans-serif">RELATES_TO</text></g><g class="relationship" transform="translate(419.4905012708206 387.6046828912984) rotate(253.57835375858474)"><path class="b-outline" fill="#4C8EDA" stroke="none" d="M 32.5 1 L 81.88430318903274 1 L 81.88430318903274 -1 L 32.5 -1 Z M 134.77492818903272 1 L 184.15923137806547 1 L 184.15923137806547 4 L 192.15923137806547 0 L 184.15923137806547 -4 L 184.15923137806547 -1 L 134.77492818903272 -1 Z"/><text text-anchor="middle" pointer-events="none" font-size="8px" fill="#000000" x="108.32961568903274" y="3" transform="rotate(180 108.32961568903274 0)" font-family="Helvetica Neue, Helvetica, Arial, sans-serif">RELATES_TO</text></g><g class="relationship" transform="translate(419.4905012708206 387.6046828912984) rotate(243.38210916032466)"><path class="b-outline" fill="#4C8EDA" stroke="none" d="M 32.5 1 L 132.54677189312457 1 L 132.54677189312457 -1 L 32.5 -1 Z M 185.43739689312457 1 L 285.48416878624914 1 L 285.48416878624914 4 L 293.48416878624914 0 L 285.48416878624914 -4 L 285.48416878624914 -1 L 185.43739689312457 -1 Z"/><text text-anchor="middle" pointer-events="none" font-size="8px" fill="#000000" x="158.99208439312457" y="3" transform="rotate(180 158.99208439312457 0)" font-family="Helvetica Neue, Helvetica, Arial, sans-serif">RELATES_TO</text></g><g class="relationship" transform="translate(419.4905012708206 387.6046828912984) rotate(279.1230241150348)"><path class="b-outline" fill="#4C8EDA" stroke="none" d="M 32.5 1 L 87.89113832842328 1 L 87.89113832842328 -1 L 32.5 -1 Z M 140.78176332842327 1 L 196.17290165684656 1 L 196.17290165684656 4 L 204.17290165684656 0 L 196.17290165684656 -4 L 196.17290165684656 -1 L 140.78176332842327 -1 Z"/><text text-anchor="middle" pointer-events="none" font-size="8px" fill="#000000" x="114.33645082842328" y="3" font-family="Helvetica Neue, Helvetica, Arial, sans-serif">RELATES_TO</text></g><g class="relationship" transform="translate(419.4905012708206 387.6046828912984) rotate(264.718699405762)"><path class="b-outline" fill="#4C8EDA" stroke="none" d="M 32.5 1 L 210.00291186785378 1 L 210.00291186785378 -1 L 32.5 -1 Z M 262.89353686785375 1 L 440.39644873570757 1 L 440.39644873570757 4 L 448.39644873570757 0 L 440.39644873570757 -4 L 440.39644873570757 -1 L 262.89353686785375 -1 Z"/><text text-anchor="middle" pointer-events="none" font-size="8px" fill="#000000" x="236.44822436785378" y="3" transform="rotate(180 236.44822436785378 0)" font-family="Helvetica Neue, Helvetica, Arial, sans-serif">RELATES_TO</text></g><g class="relationship" transform="translate(419.4905012708206 387.6046828912984) rotate(530.5148298719588)"><path class="b-outline" fill="#4C8EDA" stroke="none" d="M 32.5 1 L 167.67248908421718 1 L 167.67248908421718 -1 L 32.5 -1 Z M 220.56311408421718 1 L 355.73560316843435 1 L 355.73560316843435 4 L 363.73560316843435 0 L 355.73560316843435 -4 L 355.73560316843435 -1 L 220.56311408421718 -1 Z"/><text text-anchor="middle" pointer-events="none" font-size="8px" fill="#000000" x="194.11780158421718" y="3" transform="rotate(180 194.11780158421718 0)" font-family="Helvetica Neue, Helvetica, Arial, sans-serif">RELATES_TO</text></g><g class="relationship" transform="translate(419.4905012708206 387.6046828912984) rotate(188.3579217064426)"><path class="b-outline" fill="#4C8EDA" stroke="none" d="M 32.5 1 L 122.89403495350305 1 L 122.89403495350305 -1 L 32.5 -1 Z M 175.78465995350305 1 L 266.1786949070061 1 L 266.1786949070061 4 L 274.1786949070061 0 L 266.1786949070061 -4 L 266.1786949070061 -1 L 175.78465995350305 -1 Z"/><text text-anchor="middle" pointer-events="none" font-size="8px" fill="#000000" x="149.33934745350305" y="3" transform="rotate(180 149.33934745350305 0)" font-family="Helvetica Neue, Helvetica, Arial, sans-serif">RELATES_TO</text></g><g class="relationship" transform="translate(419.4905012708206 387.6046828912984) rotate(216.68494638938114)"><path class="b-outline" fill="#4C8EDA" stroke="none" d="M 32.5 1 L 203.82203944078657 1 L 203.82203944078657 -1 L 32.5 -1 Z M 256.71266444078657 1 L 428.03470388157314 1 L 428.03470388157314 4 L 436.03470388157314 0 L 428.03470388157314 -4 L 428.03470388157314 -1 L 256.71266444078657 -1 Z"/><text text-anchor="middle" pointer-events="none" font-size="8px" fill="#000000" x="230.26735194078657" y="3" transform="rotate(180 230.26735194078657 0)" font-family="Helvetica Neue, Helvetica, Arial, sans-serif">RELATES_TO</text></g><g class="relationship" transform="translate(419.4905012708206 387.6046828912984) rotate(282.5409412496398)"><path class="b-outline" fill="#4C8EDA" stroke="none" d="M 32.5 1 L 138.40939926028173 1 L 138.40939926028173 -1 L 32.5 -1 Z M 191.30002426028173 1 L 297.20942352056346 1 L 297.20942352056346 4 L 305.20942352056346 0 L 297.20942352056346 -4 L 297.20942352056346 -1 L 191.30002426028173 -1 Z"/><text text-anchor="middle" pointer-events="none" font-size="8px" fill="#000000" x="164.85471176028173" y="3" font-family="Helvetica Neue, Helvetica, Arial, sans-serif">RELATES_TO</text></g><g class="relationship" transform="translate(419.4905012708206 387.6046828912984) rotate(262.91345460061024)"><path class="b-outline" fill="#4C8EDA" stroke="none" d="M 32.5 1 L 132.19423488184063 1 L 132.19423488184063 -1 L 32.5 -1 Z M 185.08485988184063 1 L 284.77909476368126 1 L 284.77909476368126 4 L 292.77909476368126 0 L 284.77909476368126 -4 L 284.77909476368126 -1 L 185.08485988184063 -1 Z"/><text text-anchor="middle" pointer-events="none" font-size="8px" fill="#000000" x="158.63954738184063" y="3" transform="rotate(180 158.63954738184063 0)" font-family="Helvetica Neue, Helvetica, Arial, sans-serif">RELATES_TO</text></g><g class="relationship" transform="translate(419.4905012708206 387.6046828912984) rotate(203.3793586462843)"><path class="b-outline" fill="#4C8EDA" stroke="none" d="M 32.5 1 L 177.6369350375046 1 L 177.6369350375046 -1 L 32.5 -1 Z M 230.5275600375046 1 L 375.6644950750092 1 L 375.6644950750092 4 L 383.6644950750092 0 L 375.6644950750092 -4 L 375.6644950750092 -1 L 230.5275600375046 -1 Z"/><text text-anchor="middle" pointer-events="none" font-size="8px" fill="#000000" x="204.0822475375046" y="3" transform="rotate(180 204.0822475375046 0)" font-family="Helvetica Neue, Helvetica, Arial, sans-serif">RELATES_TO</text></g><g class="relationship" transform="translate(609.2887570896896 -78.37208624068231) rotate(487.9494630317846)"><path class="b-outline" fill="#4C8EDA" stroke="none" d="M 32.5 1 L 195.3999679684095 1 L 195.3999679684095 -1 L 32.5 -1 Z M 248.2905929684095 1 L 411.190560936819 1 L 411.190560936819 4 L 419.190560936819 0 L 411.190560936819 -4 L 411.190560936819 -1 L 248.2905929684095 -1 Z"/><text text-anchor="middle" pointer-events="none" font-size="8px" fill="#000000" x="221.8452804684095" y="3" transform="rotate(180 221.8452804684095 0)" font-family="Helvetica Neue, Helvetica, Arial, sans-serif">RELATES_TO</text></g><g class="relationship" transform="translate(609.2887570896896 -78.37208624068231) rotate(529.6511722787634)"><path class="b-outline" fill="#4C8EDA" stroke="none" d="M 32.5 1 L 34.62103896791088 1 L 34.62103896791088 -1 L 32.5 -1 Z M 87.51166396791088 1 L 89.63270293582175 1 L 89.63270293582175 4 L 97.63270293582175 0 L 89.63270293582175 -4 L 89.63270293582175 -1 L 87.51166396791088 -1 Z"/><text text-anchor="middle" pointer-events="none" font-size="8px" fill="#000000" x="61.06635146791088" y="3" transform="rotate(180 61.06635146791088 0)" font-family="Helvetica Neue, Helvetica, Arial, sans-serif">RELATES_TO</text></g><g class="relationship" transform="translate(609.2887570896896 -78.37208624068231) rotate(462.45126579565573)"><path class="b-outline" fill="#4C8EDA" stroke="none" d="M 32.5 1 L 94.43924770046154 1 L 94.43924770046154 -1 L 32.5 -1 Z M 147.32987270046152 1 L 209.26912040092307 1 L 209.26912040092307 4 L 217.26912040092307 0 L 209.26912040092307 -4 L 209.26912040092307 -1 L 147.32987270046152 -1 Z"/><text text-anchor="middle" pointer-events="none" font-size="8px" fill="#000000" x="120.88456020046154" y="3" transform="rotate(180 120.88456020046154 0)" font-family="Helvetica Neue, Helvetica, Arial, sans-serif">RELATES_TO</text></g><g class="relationship" transform="translate(609.2887570896896 -78.37208624068231) rotate(453.6559134044576)"><path class="b-outline" fill="#4C8EDA" stroke="none" d="M 32.5 1 L 43.517300259593924 1 L 43.517300259593924 -1 L 32.5 -1 Z M 96.40792525959392 1 L 107.42522551918785 1 L 107.42522551918785 4 L 115.42522551918785 0 L 107.42522551918785 -4 L 107.42522551918785 -1 L 96.40792525959392 -1 Z"/><text text-anchor="middle" pointer-events="none" font-size="8px" fill="#000000" x="69.96261275959392" y="3" transform="rotate(180 69.96261275959392 0)" font-family="Helvetica Neue, Helvetica, Arial, sans-serif">RELATES_TO</text></g><g class="relationship" transform="translate(609.2887570896896 -78.37208624068231) rotate(490.50891087477197)"><path class="b-outline" fill="#4C8EDA" stroke="none" d="M 32.5 1 L 59.20603139228359 1 L 59.20603139228359 -1 L 32.5 -1 Z M 112.09665639228359 1 L 138.80268778456718 1 L 138.80268778456718 4 L 146.80268778456718 0 L 138.80268778456718 -4 L 138.80268778456718 -1 L 112.09665639228359 -1 Z"/><text text-anchor="middle" pointer-events="none" font-size="8px" fill="#000000" x="85.65134389228359" y="3" transform="rotate(180 85.65134389228359 0)" font-family="Helvetica Neue, Helvetica, Arial, sans-serif">RELATES_TO</text></g><g class="relationship" transform="translate(609.2887570896896 -78.37208624068231) rotate(183.1492498579264)"><path class="b-outline" fill="#4C8EDA" stroke="none" d="M 32.5 1 L 86.76302535412965 1 L 86.76302535412965 -1 L 32.5 -1 Z M 139.65365035412964 1 L 193.9166757082593 1 L 193.9166757082593 4 L 201.9166757082593 0 L 193.9166757082593 -4 L 193.9166757082593 -1 L 139.65365035412964 -1 Z"/><text text-anchor="middle" pointer-events="none" font-size="8px" fill="#000000" x="113.20833785412965" y="3" transform="rotate(180 113.20833785412965 0)" font-family="Helvetica Neue, Helvetica, Arial, sans-serif">RELATES_TO</text></g><g class="relationship" transform="translate(481.27301332357166 -54.994966627897156) rotate(527.1784372766188)"><path class="b-outline" fill="#4C8EDA" stroke="none" d="M 32.5 1 L 64.18035753360118 1 L 64.18035753360118 -1 L 32.5 -1 Z M 117.07098253360118 1 L 148.75134006720236 1 L 148.75134006720236 4 L 156.75134006720236 0 L 148.75134006720236 -4 L 148.75134006720236 -1 L 117.07098253360118 -1 Z"/><text text-anchor="middle" pointer-events="none" font-size="8px" fill="#000000" x="90.62567003360118" y="3" transform="rotate(180 90.62567003360118 0)" font-family="Helvetica Neue, Helvetica, Arial, sans-serif">RELATES_TO</text></g><g class="relationship" transform="translate(481.27301332357166 -54.994966627897156) rotate(490.38593980322344)"><path class="b-outline" fill="#4C8EDA" stroke="none" d="M 32.5 1 L 48.19838089924285 1 L 48.19838089924285 -1 L 32.5 -1 Z M 101.08900589924285 1 L 116.7873867984857 1 L 116.7873867984857 4 L 124.7873867984857 0 L 116.7873867984857 -4 L 116.7873867984857 -1 L 101.08900589924285 -1 Z"/><text text-anchor="middle" pointer-events="none" font-size="8px" fill="#000000" x="74.64369339924285" y="3" transform="rotate(180 74.64369339924285 0)" font-family="Helvetica Neue, Helvetica, Arial, sans-serif">RELATES_TO</text></g><g class="relationship" transform="translate(481.27301332357166 -54.994966627897156) rotate(198.87451902242202)"><path class="b-outline" fill="#4C8EDA" stroke="none" d="M 32.5 1 L 34.37642894488719 1 L 34.37642894488719 -1 L 32.5 -1 Z M 69.69674144488718 1 L 71.57317038977438 1 L 71.57317038977438 4 L 79.57317038977438 0 L 71.57317038977438 -4 L 71.57317038977438 -1 L 69.69674144488718 -1 Z"/><text text-anchor="middle" pointer-events="none" font-size="8px" fill="#000000" x="52.03658519488719" y="3" transform="rotate(180 52.03658519488719 0)" font-family="Helvetica Neue, Helvetica, Arial, sans-serif">RELAT…</text></g><g class="relationship" transform="translate(481.27301332357166 -54.994966627897156) rotate(474.22723067739366)"><path class="b-outline" fill="#4C8EDA" stroke="none" d="M 32.5 1 L 152.02856180972003 1 L 152.02856180972003 -1 L 32.5 -1 Z M 204.91918680972003 1 L 324.44774861944006 1 L 324.44774861944006 4 L 332.44774861944006 0 L 324.44774861944006 -4 L 324.44774861944006 -1 L 204.91918680972003 -1 Z"/><text text-anchor="middle" pointer-events="none" font-size="8px" fill="#000000" x="178.47387430972003" y="3" transform="rotate(180 178.47387430972003 0)" font-family="Helvetica Neue, Helvetica, Arial, sans-serif">RELATES_TO</text></g><g class="relationship" transform="translate(296.74048366120667 -12.997166523126689) rotate(480.9615534830124)"><path class="b-outline" fill="#4C8EDA" stroke="none" d="M 32.5 1 L 115.84817058005484 1 L 115.84817058005484 -1 L 32.5 -1 Z M 168.73879558005484 1 L 252.08696616010968 1 L 252.08696616010968 4 L 260.0869661601097 0 L 252.08696616010968 -4 L 252.08696616010968 -1 L 168.73879558005484 -1 Z"/><text text-anchor="middle" pointer-events="none" font-size="8px" fill="#000000" x="142.29348308005484" y="3" transform="rotate(180 142.29348308005484 0)" font-family="Helvetica Neue, Helvetica, Arial, sans-serif">RELATES_TO</text></g><g class="relationship" transform="translate(457.01613612285854 153.92565279312532) rotate(251.5514362942186)"><path class="b-outline" fill="#4C8EDA" stroke="none" d="M 32.5 1 L 98.7839792923478 1 L 98.7839792923478 -1 L 32.5 -1 Z M 151.6746042923478 1 L 217.9585835846956 1 L 217.9585835846956 4 L 225.9585835846956 0 L 217.9585835846956 -4 L 217.9585835846956 -1 L 151.6746042923478 -1 Z"/><text text-anchor="middle" pointer-events="none" font-size="8px" fill="#000000" x="125.2292917923478" y="3" transform="rotate(180 125.2292917923478 0)" font-family="Helvetica Neue, Helvetica, Arial, sans-serif">RELATES_TO</text></g><g class="relationship" transform="translate(375.2260935074962 -91.25026029293682) rotate(454.18001851349163)"><path class="b-outline" fill="#4C8EDA" stroke="none" d="M 32.5 1 L 101.58598750357106 1 L 101.58598750357106 -1 L 32.5 -1 Z M 154.47661250357106 1 L 223.56260000714212 1 L 223.56260000714212 4 L 231.56260000714212 0 L 223.56260000714212 -4 L 223.56260000714212 -1 L 154.47661250357106 -1 Z"/><text text-anchor="middle" pointer-events="none" font-size="8px" fill="#000000" x="128.03130000357106" y="3" transform="rotate(180 128.03130000357106 0)" font-family="Helvetica Neue, Helvetica, Arial, sans-serif">RELATES_TO</text></g><g class="relationship" transform="translate(375.2260935074962 -91.25026029293682) rotate(478.506609474211)"><path class="b-outline" fill="#4C8EDA" stroke="none" d="M 32.5 1 L 76.19357015628022 1 L 76.19357015628022 -1 L 32.5 -1 Z M 129.0841951562802 1 L 172.77776531256043 1 L 172.77776531256043 4 L 180.77776531256043 0 L 172.77776531256043 -4 L 172.77776531256043 -1 L 129.0841951562802 -1 Z"/><text text-anchor="middle" pointer-events="none" font-size="8px" fill="#000000" x="102.63888265628022" y="3" transform="rotate(180 102.63888265628022 0)" font-family="Helvetica Neue, Helvetica, Arial, sans-serif">RELATES_TO</text></g><g class="relationship" transform="translate(546.5955351817647 294.73163875467304) rotate(335.4670410110093)"><path class="b-outline" fill="#4C8EDA" stroke="none" d="M 32.5 1 L 33.10593050034457 1 L 33.10593050034457 -1 L 32.5 -1 Z M 81.78561800034457 1 L 82.39154850068914 1 L 82.39154850068914 4 L 90.39154850068914 0 L 82.39154850068914 -4 L 82.39154850068914 -1 L 81.78561800034457 -1 Z"/><text text-anchor="middle" pointer-events="none" font-size="8px" fill="#000000" x="57.44577425034457" y="3" font-family="Helvetica Neue, Helvetica, Arial, sans-serif">RELATES_…</text></g><g class="relationship" transform="translate(690.9779576292891 573.8397112257001) rotate(538.2073734006835)"><path class="b-outline" fill="#4C8EDA" stroke="none" d="M 32.5 1 L 92.79828924423553 1 L 92.79828924423553 -1 L 32.5 -1 Z M 145.68891424423555 1 L 205.98720348847107 1 L 205.98720348847107 4 L 213.98720348847107 0 L 205.98720348847107 -4 L 205.98720348847107 -1 L 145.68891424423555 -1 Z"/><text text-anchor="middle" pointer-events="none" font-size="8px" fill="#000000" x="119.24360174423553" y="3" transform="rotate(180 119.24360174423553 0)" font-family="Helvetica Neue, Helvetica, Arial, sans-serif">RELATES_TO</text></g><g class="relationship" transform="translate(479.9348915732951 481.09485604085296) rotate(469.37337535418243)"><path class="b-outline" fill="#4C8EDA" stroke="none" d="M 32.5 1 L 33.185864937657634 1 L 33.185864937657634 -1 L 32.5 -1 Z M 65.29914618765764 1 L 65.98501112531527 1 L 65.98501112531527 4 L 73.98501112531527 0 L 65.98501112531527 -4 L 65.98501112531527 -1 L 65.29914618765764 -1 Z"/><text text-anchor="middle" pointer-events="none" font-size="8px" fill="#000000" x="49.242505562657634" y="3" transform="rotate(180 49.242505562657634 0)" font-family="Helvetica Neue, Helvetica, Arial, sans-serif">RELA…</text></g><g class="relationship" transform="translate(118.19150646254086 519.3096218900897) rotate(370.79539529474107)"><path class="b-outline" fill="#4C8EDA" stroke="none" d="M 32.5 1 L 135.7051065835318 1 L 135.7051065835318 -1 L 32.5 -1 Z M 188.5957315835318 1 L 291.8008381670636 1 L 291.8008381670636 4 L 299.8008381670636 0 L 291.8008381670636 -4 L 291.8008381670636 -1 L 188.5957315835318 -1 Z"/><text text-anchor="middle" pointer-events="none" font-size="8px" fill="#000000" x="162.1504190835318" y="3" font-family="Helvetica Neue, Helvetica, Arial, sans-serif">RELATES_TO</text></g><g class="relationship" transform="translate(444.61138637244625 581.5503565108826) rotate(307.9549608243978)"><path class="b-outline" fill="#4C8EDA" stroke="none" d="M 32.5 1 L 114.20226163556507 1 L 114.20226163556507 -1 L 32.5 -1 Z M 167.09288663556507 1 L 248.79514827113013 1 L 248.79514827113013 4 L 256.79514827113013 0 L 248.79514827113013 -4 L 248.79514827113013 -1 L 167.09288663556507 -1 Z"/><text text-anchor="middle" pointer-events="none" font-size="8px" fill="#000000" x="140.64757413556507" y="3" font-family="Helvetica Neue, Helvetica, Arial, sans-serif">RELATES_TO</text></g><g class="relationship" transform="translate(444.61138637244625 581.5503565108826) rotate(524.0538256363129)"><path class="b-outline" fill="#4C8EDA" stroke="none" d="M 32.5 1 L 44.92356145649181 1 L 44.92356145649181 -1 L 32.5 -1 Z M 97.81418645649181 1 L 110.23774791298362 1 L 110.23774791298362 4 L 118.23774791298362 0 L 110.23774791298362 -4 L 110.23774791298362 -1 L 97.81418645649181 -1 Z"/><text text-anchor="middle" pointer-events="none" font-size="8px" fill="#000000" x="71.36887395649181" y="3" transform="rotate(180 71.36887395649181 0)" font-family="Helvetica Neue, Helvetica, Arial, sans-serif">RELATES_TO</text></g><g class="relationship" transform="translate(444.61138637244625 581.5503565108826) rotate(434.23124777487845)"><path class="b-outline" fill="#4C8EDA" stroke="none" d="M 32.5 1 L 76.33310145929326 1 L 76.33310145929326 -1 L 32.5 -1 Z M 129.22372645929326 1 L 173.05682791858652 1 L 173.05682791858652 4 L 181.05682791858652 0 L 173.05682791858652 -4 L 173.05682791858652 -1 L 129.22372645929326 -1 Z"/><text text-anchor="middle" pointer-events="none" font-size="8px" fill="#000000" x="102.77841395929326" y="3" font-family="Helvetica Neue, Helvetica, Arial, sans-serif">RELATES_TO</text></g><g class="relationship" transform="translate(444.61138637244625 581.5503565108826) rotate(402.71768573119215)"><path class="b-outline" fill="#4C8EDA" stroke="none" d="M 32.5 1 L 54.26123153893093 1 L 54.26123153893093 -1 L 32.5 -1 Z M 107.15185653893093 1 L 128.91308807786186 1 L 128.91308807786186 4 L 136.91308807786186 0 L 128.91308807786186 -4 L 128.91308807786186 -1 L 107.15185653893093 -1 Z"/><text text-anchor="middle" pointer-events="none" font-size="8px" fill="#000000" x="80.70654403893093" y="3" font-family="Helvetica Neue, Helvetica, Arial, sans-serif">RELATES_TO</text></g><g class="relationship" transform="translate(444.61138637244625 581.5503565108826) rotate(269.2897667002844)"><path class="b-outline" fill="#4C8EDA" stroke="none" d="M 32.5 1 L 127.78851794809447 1 L 127.78851794809447 -1 L 32.5 -1 Z M 180.67914294809447 1 L 275.96766089618893 1 L 275.96766089618893 4 L 283.96766089618893 0 L 275.96766089618893 -4 L 275.96766089618893 -1 L 180.67914294809447 -1 Z"/><text text-anchor="middle" pointer-events="none" font-size="8px" fill="#000000" x="154.23383044809447" y="3" transform="rotate(180 154.23383044809447 0)" font-family="Helvetica Neue, Helvetica, Arial, sans-serif">RELATES_TO</text></g><g class="relationship" transform="translate(444.61138637244625 581.5503565108826) rotate(359.800713841233)"><path class="b-outline" fill="#4C8EDA" stroke="none" d="M 32.5 1 L 32.73629992169923 1 L 32.73629992169923 -1 L 32.5 -1 Z M 85.62692492169923 1 L 85.86322484339846 1 L 85.86322484339846 4 L 93.86322484339846 0 L 85.86322484339846 -4 L 85.86322484339846 -1 L 85.62692492169923 -1 Z"/><text text-anchor="middle" pointer-events="none" font-size="8px" fill="#000000" x="59.18161242169923" y="3" font-family="Helvetica Neue, Helvetica, Arial, sans-serif">RELATES_TO</text></g><g class="relationship" transform="translate(444.61138637244625 581.5503565108826) rotate(461.8683024523493)"><path class="b-outline" fill="#4C8EDA" stroke="none" d="M 32.5 1 L 91.26522142125434 1 L 91.26522142125434 -1 L 32.5 -1 Z M 144.15584642125435 1 L 202.92106784250868 1 L 202.92106784250868 4 L 210.92106784250868 0 L 202.92106784250868 -4 L 202.92106784250868 -1 L 144.15584642125435 -1 Z"/><text text-anchor="middle" pointer-events="none" font-size="8px" fill="#000000" x="117.71053392125434" y="3" transform="rotate(180 117.71053392125434 0)" font-family="Helvetica Neue, Helvetica, Arial, sans-serif">RELATES_TO</text></g><g class="relationship" transform="translate(444.61138637244625 581.5503565108826) rotate(447.13039533426064)"><path class="b-outline" fill="#4C8EDA" stroke="none" d="M 32.5 1 L 34.00445570215184 1 L 34.00445570215184 -1 L 32.5 -1 Z M 66.11773695215183 1 L 67.62219265430367 1 L 67.62219265430367 4 L 75.62219265430367 0 L 67.62219265430367 -4 L 67.62219265430367 -1 L 66.11773695215183 -1 Z"/><text text-anchor="middle" pointer-events="none" font-size="8px" fill="#000000" x="50.06109632715184" y="3" font-family="Helvetica Neue, Helvetica, Arial, sans-serif">RELA…</text></g><g class="relationship" transform="translate(444.61138637244625 581.5503565108826) rotate(348.1005526785931)"><path class="b-outline" fill="#4C8EDA" stroke="none" d="M 32.5 1 L 154.85736451487725 1 L 154.85736451487725 -1 L 32.5 -1 Z M 207.74798951487725 1 L 330.1053540297545 1 L 330.1053540297545 4 L 338.1053540297545 0 L 330.1053540297545 -4 L 330.1053540297545 -1 L 207.74798951487725 -1 Z"/><text text-anchor="middle" pointer-events="none" font-size="8px" fill="#000000" x="181.30267701487725" y="3" font-family="Helvetica Neue, Helvetica, Arial, sans-serif">RELATES_TO</text></g><g class="relationship" transform="translate(444.61138637244625 581.5503565108826) rotate(332.20691983971847)"><path class="b-outline" fill="#4C8EDA" stroke="none" d="M 32.5 1 L 164.16293394260427 1 L 164.16293394260427 -1 L 32.5 -1 Z M 217.05355894260427 1 L 348.71649288520854 1 L 348.71649288520854 4 L 356.71649288520854 0 L 348.71649288520854 -4 L 348.71649288520854 -1 L 217.05355894260427 -1 Z"/><text text-anchor="middle" pointer-events="none" font-size="8px" fill="#000000" x="190.60824644260427" y="3" font-family="Helvetica Neue, Helvetica, Arial, sans-serif">RELATES_TO</text></g><g class="relationship" transform="translate(444.61138637244625 581.5503565108826) rotate(327.1077359075973)"><path class="b-outline" fill="#4C8EDA" stroke="none" d="M 32.5 1 L 100.42768589249371 1 L 100.42768589249371 -1 L 32.5 -1 Z M 153.3183108924937 1 L 221.24599678498743 1 L 221.24599678498743 4 L 229.24599678498743 0 L 221.24599678498743 -4 L 221.24599678498743 -1 L 153.3183108924937 -1 Z"/><text text-anchor="middle" pointer-events="none" font-size="8px" fill="#000000" x="126.87299839249371" y="3" font-family="Helvetica Neue, Helvetica, Arial, sans-serif">RELATES_TO</text></g><g class="relationship" transform="translate(444.61138637244625 581.5503565108826) rotate(372.74910643255237)"><path class="b-outline" fill="#4C8EDA" stroke="none" d="M 32.5 1 L 81.87928699238897 1 L 81.87928699238897 -1 L 32.5 -1 Z M 134.76991199238898 1 L 184.14919898477794 1 L 184.14919898477794 4 L 192.14919898477794 0 L 184.14919898477794 -4 L 184.14919898477794 -1 L 134.76991199238898 -1 Z"/><text text-anchor="middle" pointer-events="none" font-size="8px" fill="#000000" x="108.32459949238897" y="3" font-family="Helvetica Neue, Helvetica, Arial, sans-serif">RELATES_TO</text></g><g class="relationship" transform="translate(444.61138637244625 581.5503565108826) rotate(199.48292742709947)"><path class="b-outline" fill="#4C8EDA" stroke="none" d="M 32.5 1 L 60.906187301968544 1 L 60.906187301968544 -1 L 32.5 -1 Z M 113.79681230196854 1 L 142.2029996039371 1 L 142.2029996039371 4 L 150.2029996039371 0 L 142.2029996039371 -4 L 142.2029996039371 -1 L 113.79681230196854 -1 Z"/><text text-anchor="middle" pointer-events="none" font-size="8px" fill="#000000" x="87.35149980196854" y="3" transform="rotate(180 87.35149980196854 0)" font-family="Helvetica Neue, Helvetica, Arial, sans-serif">RELATES_TO</text></g><g class="relationship" transform="translate(444.61138637244625 581.5503565108826) rotate(510.80435190625366)"><path class="b-outline" fill="#4C8EDA" stroke="none" d="M 32.5 1 L 96.22863953127633 1 L 96.22863953127633 -1 L 32.5 -1 Z M 149.11926453127631 1 L 212.84790406255266 1 L 212.84790406255266 4 L 220.84790406255266 0 L 212.84790406255266 -4 L 212.84790406255266 -1 L 149.11926453127631 -1 Z"/><text text-anchor="middle" pointer-events="none" font-size="8px" fill="#000000" x="122.67395203127633" y="3" transform="rotate(180 122.67395203127633 0)" font-family="Helvetica Neue, Helvetica, Arial, sans-serif">RELATES_TO</text></g><g class="relationship" transform="translate(444.61138637244625 581.5503565108826) rotate(487.12773647544327)"><path class="b-outline" fill="#4C8EDA" stroke="none" d="M 32.5 1 L 113.31969224119356 1 L 113.31969224119356 -1 L 32.5 -1 Z M 166.21031724119356 1 L 247.03000948238713 1 L 247.03000948238713 4 L 255.03000948238713 0 L 247.03000948238713 -4 L 247.03000948238713 -1 L 166.21031724119356 -1 Z"/><text text-anchor="middle" pointer-events="none" font-size="8px" fill="#000000" x="139.76500474119356" y="3" transform="rotate(180 139.76500474119356 0)" font-family="Helvetica Neue, Helvetica, Arial, sans-serif">RELATES_TO</text></g><g class="relationship" transform="translate(444.61138637244625 581.5503565108826) rotate(231.59663579283495)"><path class="b-outline" fill="#4C8EDA" stroke="none" d="M 32.5 1 L 75.65406526417459 1 L 75.65406526417459 -1 L 32.5 -1 Z M 128.5446902641746 1 L 171.69875552834918 1 L 171.69875552834918 4 L 179.69875552834918 0 L 171.69875552834918 -4 L 171.69875552834918 -1 L 128.5446902641746 -1 Z"/><text text-anchor="middle" pointer-events="none" font-size="8px" fill="#000000" x="102.09937776417459" y="3" transform="rotate(180 102.09937776417459 0)" font-family="Helvetica Neue, Helvetica, Arial, sans-serif">RELATES_TO</text></g><g class="relationship" transform="translate(444.61138637244625 581.5503565108826) rotate(486.61894074277814)"><path class="b-outline" fill="#4C8EDA" stroke="none" d="M 32.5 1 L 56.57144259645436 1 L 56.57144259645436 -1 L 32.5 -1 Z M 109.46206759645436 1 L 133.53351019290872 1 L 133.53351019290872 4 L 141.53351019290872 0 L 133.53351019290872 -4 L 133.53351019290872 -1 L 109.46206759645436 -1 Z"/><text text-anchor="middle" pointer-events="none" font-size="8px" fill="#000000" x="83.01675509645436" y="3" transform="rotate(180 83.01675509645436 0)" font-family="Helvetica Neue, Helvetica, Arial, sans-serif">RELATES_TO</text></g><g class="relationship" transform="translate(609.2887570896896 -78.37208624068231) rotate(463.0185445267289)"><path class="b-outline" fill="#4C8EDA" stroke="none" d="M 32.5 1 L 256.667767152375 1 L 256.667767152375 -1 L 32.5 -1 Z M 309.558392152375 1 L 533.72615930475 1 L 533.72615930475 4 L 541.72615930475 0 L 533.72615930475 -4 L 533.72615930475 -1 L 309.558392152375 -1 Z"/><text text-anchor="middle" pointer-events="none" font-size="8px" fill="#000000" x="283.113079652375" y="3" transform="rotate(180 283.113079652375 0)" font-family="Helvetica Neue, Helvetica, Arial, sans-serif">RELATES_TO</text></g><g class="relationship" transform="translate(690.9779576292891 573.8397112257001) rotate(203.72353826293863)"><path class="b-outline" fill="#4C8EDA" stroke="none" d="M 32.5 1 L 84.81611198101719 1 L 84.81611198101719 -1 L 32.5 -1 Z M 137.70673698101717 1 L 190.02284896203437 1 L 190.02284896203437 4 L 198.02284896203437 0 L 190.02284896203437 -4 L 190.02284896203437 -1 L 137.70673698101717 -1 Z"/><text text-anchor="middle" pointer-events="none" font-size="8px" fill="#000000" x="111.26142448101719" y="3" transform="rotate(180 111.26142448101719 0)" font-family="Helvetica Neue, Helvetica, Arial, sans-serif">RELATES_TO</text></g><g class="relationship" transform="translate(479.9348915732951 481.09485604085296) rotate(533.9696095485242)"><path class="b-outline" fill="#4C8EDA" stroke="none" d="M 32.5 1 L 151.43283695747292 1 L 151.43283695747292 -1 L 32.5 -1 Z M 204.32346195747292 1 L 323.25629891494583 1 L 323.25629891494583 4 L 331.25629891494583 0 L 323.25629891494583 -4 L 323.25629891494583 -1 L 204.32346195747292 -1 Z"/><text text-anchor="middle" pointer-events="none" font-size="8px" fill="#000000" x="177.87814945747292" y="3" transform="rotate(180 177.87814945747292 0)" font-family="Helvetica Neue, Helvetica, Arial, sans-serif">RELATES_TO</text></g><g class="relationship" transform="translate(479.9348915732951 481.09485604085296) rotate(259.7013699832029)"><path class="b-outline" fill="#4C8EDA" stroke="none" d="M 32.5 1 L 79.3169564421861 1 L 79.3169564421861 -1 L 32.5 -1 Z M 132.2075814421861 1 L 179.0245378843722 1 L 179.0245378843722 4 L 187.0245378843722 0 L 179.0245378843722 -4 L 179.0245378843722 -1 L 132.2075814421861 -1 Z"/><text text-anchor="middle" pointer-events="none" font-size="8px" fill="#000000" x="105.7622689421861" y="3" transform="rotate(180 105.7622689421861 0)" font-family="Helvetica Neue, Helvetica, Arial, sans-serif">RELATES_TO</text></g><g class="relationship" transform="translate(622.5400078767477 353.4427317746757) rotate(205.90851863353868)"><path class="b-outline" fill="#4C8EDA" stroke="none" d="M 32.5 1 L 70.64022162439998 1 L 70.64022162439998 -1 L 32.5 -1 Z M 123.53084662439998 1 L 161.67106824879997 1 L 161.67106824879997 4 L 169.67106824879997 0 L 161.67106824879997 -4 L 161.67106824879997 -1 L 123.53084662439998 -1 Z"/><text text-anchor="middle" pointer-events="none" font-size="8px" fill="#000000" x="97.08553412439998" y="3" transform="rotate(180 97.08553412439998 0)" font-family="Helvetica Neue, Helvetica, Arial, sans-serif">RELATES_TO</text></g><g class="relationship" transform="translate(609.2887570896896 -78.37208624068231) rotate(476.14457818025943)"><path class="b-outline" fill="#4C8EDA" stroke="none" d="M 32.5 1 L 160.86850560437477 1 L 160.86850560437477 -1 L 32.5 -1 Z M 213.75913060437477 1 L 342.12763620874955 1 L 342.12763620874955 4 L 350.12763620874955 0 L 342.12763620874955 -4 L 342.12763620874955 -1 L 213.75913060437477 -1 Z"/><text text-anchor="middle" pointer-events="none" font-size="8px" fill="#000000" x="187.31381810437477" y="3" transform="rotate(180 187.31381810437477 0)" font-family="Helvetica Neue, Helvetica, Arial, sans-serif">RELATES_TO</text></g><g class="relationship" transform="translate(690.9779576292891 573.8397112257001) rotate(536.5326492480083)"><path class="b-outline" fill="#4C8EDA" stroke="none" d="M 32.5 1 L 33.56522014206454 1 L 33.56522014206454 -1 L 32.5 -1 Z M 78.65897014206453 1 L 79.72419028412908 1 L 79.72419028412908 4 L 87.72419028412908 0 L 79.72419028412908 -4 L 79.72419028412908 -1 L 78.65897014206453 -1 Z"/><text text-anchor="middle" pointer-events="none" font-size="8px" fill="#000000" x="56.11209514206454" y="3" transform="rotate(180 56.11209514206454 0)" font-family="Helvetica Neue, Helvetica, Arial, sans-serif">RELATES…</text></g><g class="relationship" transform="translate(479.9348915732951 481.09485604085296) rotate(407.6901575620796)"><path class="b-outline" fill="#4C8EDA" stroke="none" d="M 32.5 1 L 37.177332747439706 1 L 37.177332747439706 -1 L 32.5 -1 Z M 90.0679577474397 1 L 94.74529049487941 1 L 94.74529049487941 4 L 102.74529049487941 0 L 94.74529049487941 -4 L 94.74529049487941 -1 L 90.0679577474397 -1 Z"/><text text-anchor="middle" pointer-events="none" font-size="8px" fill="#000000" x="63.622645247439706" y="3" font-family="Helvetica Neue, Helvetica, Arial, sans-serif">RELATES_TO</text></g><g class="relationship" transform="translate(479.9348915732951 481.09485604085296) rotate(458.1659606460234)"><path class="b-outline" fill="#4C8EDA" stroke="none" d="M 32.5 1 L 74.84328750720583 1 L 74.84328750720583 -1 L 32.5 -1 Z M 127.73391250720583 1 L 170.07720001441166 1 L 170.07720001441166 4 L 178.07720001441166 0 L 170.07720001441166 -4 L 170.07720001441166 -1 L 127.73391250720583 -1 Z"/><text text-anchor="middle" pointer-events="none" font-size="8px" fill="#000000" x="101.28860000720583" y="3" transform="rotate(180 101.28860000720583 0)" font-family="Helvetica Neue, Helvetica, Arial, sans-serif">RELATES_TO</text></g><g class="relationship" transform="translate(570.973846853516 581.1108408759295) rotate(498.1251186228385)"><path class="b-outline" fill="#4C8EDA" stroke="none" d="M 32.5 1 L 50.772009428207156 1 L 50.772009428207156 -1 L 32.5 -1 Z M 103.66263442820716 1 L 121.93464385641431 1 L 121.93464385641431 4 L 129.9346438564143 0 L 121.93464385641431 -4 L 121.93464385641431 -1 L 103.66263442820716 -1 Z"/><text text-anchor="middle" pointer-events="none" font-size="8px" fill="#000000" x="77.21732192820716" y="3" transform="rotate(180 77.21732192820716 0)" font-family="Helvetica Neue, Helvetica, Arial, sans-serif">RELATES_TO</text></g><g class="relationship" transform="translate(690.9779576292891 573.8397112257001) rotate(514.3513584218472)"><path class="b-outline" fill="#4C8EDA" stroke="none" d="M 32.5 1 L 103.20021789413403 1 L 103.20021789413403 -1 L 32.5 -1 Z M 156.09084289413403 1 L 226.79106078826806 1 L 226.79106078826806 4 L 234.79106078826806 0 L 226.79106078826806 -4 L 226.79106078826806 -1 L 156.09084289413403 -1 Z"/><text text-anchor="middle" pointer-events="none" font-size="8px" fill="#000000" x="129.64553039413403" y="3" transform="rotate(180 129.64553039413403 0)" font-family="Helvetica Neue, Helvetica, Arial, sans-serif">RELATES_TO</text></g><g class="relationship" transform="translate(690.9779576292891 573.8397112257001) rotate(329.4213666683842)"><path class="b-outline" fill="#4C8EDA" stroke="none" d="M 32.5 1 L 37.0831694119543 1 L 37.0831694119543 -1 L 32.5 -1 Z M 89.9737944119543 1 L 94.5569638239086 1 L 94.5569638239086 4 L 102.5569638239086 0 L 94.5569638239086 -4 L 94.5569638239086 -1 L 89.9737944119543 -1 Z"/><text text-anchor="middle" pointer-events="none" font-size="8px" fill="#000000" x="63.5284819119543" y="3" font-family="Helvetica Neue, Helvetica, Arial, sans-serif">RELATES_TO</text></g><g class="relationship" transform="translate(622.5400078767477 353.4427317746757) rotate(399.39369382945665)"><path class="b-outline" fill="#4C8EDA" stroke="none" d="M 32.5 1 L 89.0629462904835 1 L 89.0629462904835 -1 L 32.5 -1 Z M 141.9535712904835 1 L 198.516517580967 1 L 198.516517580967 4 L 206.516517580967 0 L 198.516517580967 -4 L 198.516517580967 -1 L 141.9535712904835 -1 Z"/><text text-anchor="middle" pointer-events="none" font-size="8px" fill="#000000" x="115.5082587904835" y="3" font-family="Helvetica Neue, Helvetica, Arial, sans-serif">RELATES_TO</text></g><g class="relationship" transform="translate(690.9779576292891 573.8397112257001) rotate(299.40818782836527)"><path class="b-outline" fill="#4C8EDA" stroke="none" d="M 32.5 1 L 69.29320031918337 1 L 69.29320031918337 -1 L 32.5 -1 Z M 122.18382531918337 1 L 158.97702563836674 1 L 158.97702563836674 4 L 166.97702563836674 0 L 158.97702563836674 -4 L 158.97702563836674 -1 L 122.18382531918337 -1 Z"/><text text-anchor="middle" pointer-events="none" font-size="8px" fill="#000000" x="95.73851281918337" y="3" font-family="Helvetica Neue, Helvetica, Arial, sans-serif">RELATES_TO</text></g><g class="relationship" transform="translate(807.2527923561273 505.13347943717145) rotate(260.10589100383413)"><path class="b-outline" fill="#4C8EDA" stroke="none" d="M 32.5 1 L 33.26994192283742 1 L 33.26994192283742 -1 L 32.5 -1 Z M 65.38322317283742 1 L 66.15316509567484 1 L 66.15316509567484 4 L 74.15316509567484 0 L 66.15316509567484 -4 L 66.15316509567484 -1 L 65.38322317283742 -1 Z"/><text text-anchor="middle" pointer-events="none" font-size="8px" fill="#000000" x="49.32658254783742" y="3" transform="rotate(180 49.32658254783742 0)" font-family="Helvetica Neue, Helvetica, Arial, sans-serif">RELA…</text></g><g class="relationship" transform="translate(788.9268122505312 400.0665670522795) rotate(522.468261477539)"><path class="b-outline" fill="#4C8EDA" stroke="none" d="M 32.5 1 L 34.852293015212 1 L 34.852293015212 -1 L 32.5 -1 Z M 87.742918015212 1 L 90.095211030424 1 L 90.095211030424 4 L 98.095211030424 0 L 90.095211030424 -4 L 90.095211030424 -1 L 87.742918015212 -1 Z"/><text text-anchor="middle" pointer-events="none" font-size="8px" fill="#000000" x="61.297605515212" y="3" transform="rotate(180 61.297605515212 0)" font-family="Helvetica Neue, Helvetica, Arial, sans-serif">RELATES_TO</text></g><g class="relationship" transform="translate(690.9779576292891 573.8397112257001) rotate(258.81570638711946)"><path class="b-outline" fill="#4C8EDA" stroke="none" d="M 32.5 1 L 38.07266549354698 1 L 38.07266549354698 -1 L 32.5 -1 Z M 90.96329049354698 1 L 96.53595598709396 1 L 96.53595598709396 4 L 104.53595598709396 0 L 96.53595598709396 -4 L 96.53595598709396 -1 L 90.96329049354698 -1 Z"/><text text-anchor="middle" pointer-events="none" font-size="8px" fill="#000000" x="64.51797799354698" y="3" transform="rotate(180 64.51797799354698 0)" font-family="Helvetica Neue, Helvetica, Arial, sans-serif">RELATES_TO</text></g><g class="relationship" transform="translate(118.19150646254086 519.3096218900897) rotate(420.47095329286543)"><path class="b-outline" fill="#4C8EDA" stroke="none" d="M 32.5 1 L 76.33602821792891 1 L 76.33602821792891 -1 L 32.5 -1 Z M 129.2266532179289 1 L 173.06268143585783 1 L 173.06268143585783 4 L 181.06268143585783 0 L 173.06268143585783 -4 L 173.06268143585783 -1 L 129.2266532179289 -1 Z"/><text text-anchor="middle" pointer-events="none" font-size="8px" fill="#000000" x="102.78134071792891" y="3" font-family="Helvetica Neue, Helvetica, Arial, sans-serif">RELATES_TO</text></g><g class="relationship" transform="translate(394.5487239163138 819.7677910059056) rotate(184.1555388982128)"><path class="b-outline" fill="#4C8EDA" stroke="none" d="M 32.5 1 L 33.567275658454854 1 L 33.567275658454854 -1 L 32.5 -1 Z M 82.24696315845486 1 L 83.31423881690971 1 L 83.31423881690971 4 L 91.31423881690971 0 L 83.31423881690971 -4 L 83.31423881690971 -1 L 82.24696315845486 -1 Z"/><text text-anchor="middle" pointer-events="none" font-size="8px" fill="#000000" x="57.907119408454854" y="3" transform="rotate(180 57.907119408454854 0)" font-family="Helvetica Neue, Helvetica, Arial, sans-serif">RELATES_…</text></g><g class="relationship" transform="translate(450.0243199969664 689.5369700051065) rotate(505.8800822179611)"><path class="b-outline" fill="#4C8EDA" stroke="none" d="M 32.5 1 L 77.6425063351719 1 L 77.6425063351719 -1 L 32.5 -1 Z M 130.5331313351719 1 L 175.6756376703438 1 L 175.6756376703438 4 L 183.6756376703438 0 L 175.6756376703438 -4 L 175.6756376703438 -1 L 130.5331313351719 -1 Z"/><text text-anchor="middle" pointer-events="none" font-size="8px" fill="#000000" x="104.0878188351719" y="3" transform="rotate(180 104.0878188351719 0)" font-family="Helvetica Neue, Helvetica, Arial, sans-serif">RELATES_TO</text></g><g class="relationship" transform="translate(-148.08645754153306 587.5860056110654) rotate(345.6186089029104)"><path class="b-outline" fill="#4C8EDA" stroke="none" d="M 32.5 1 L 107.00069388811664 1 L 107.00069388811664 -1 L 32.5 -1 Z M 159.89131888811664 1 L 234.3920127762333 1 L 234.3920127762333 4 L 242.3920127762333 0 L 234.3920127762333 -4 L 234.3920127762333 -1 L 159.89131888811664 -1 Z"/><text text-anchor="middle" pointer-events="none" font-size="8px" fill="#000000" x="133.44600638811664" y="3" font-family="Helvetica Neue, Helvetica, Arial, sans-serif">RELATES_TO</text></g><g class="relationship" transform="translate(-152.18074402272777 423.2860676609472) rotate(379.5526543011018)"><path class="b-outline" fill="#4C8EDA" stroke="none" d="M 32.5 1 L 113.01345927717813 1 L 113.01345927717813 -1 L 32.5 -1 Z M 165.90408427717813 1 L 246.41754355435626 1 L 246.41754355435626 4 L 254.41754355435626 0 L 246.41754355435626 -4 L 246.41754355435626 -1 L 165.90408427717813 -1 Z"/><text text-anchor="middle" pointer-events="none" font-size="8px" fill="#000000" x="139.45877177717813" y="3" font-family="Helvetica Neue, Helvetica, Arial, sans-serif">RELATES_TO</text></g><g class="relationship" transform="translate(118.19150646254086 519.3096218900897) rotate(311.4549982821753)"><path class="b-outline" fill="#4C8EDA" stroke="none" d="M 32.5 1 L 130.66696168912318 1 L 130.66696168912318 -1 L 32.5 -1 Z M 183.55758668912318 1 L 281.72454837824637 1 L 281.72454837824637 4 L 289.72454837824637 0 L 281.72454837824637 -4 L 281.72454837824637 -1 L 183.55758668912318 -1 Z"/><text text-anchor="middle" pointer-events="none" font-size="8px" fill="#000000" x="157.11227418912318" y="3" font-family="Helvetica Neue, Helvetica, Arial, sans-serif">RELATES_TO</text></g><g class="relationship" transform="translate(118.19150646254086 519.3096218900897) rotate(276.88809984286087)"><path class="b-outline" fill="#4C8EDA" stroke="none" d="M 32.5 1 L 167.42545735429005 1 L 167.42545735429005 -1 L 32.5 -1 Z M 220.31608235429005 1 L 355.2415397085801 1 L 355.2415397085801 4 L 363.2415397085801 0 L 355.2415397085801 -4 L 355.2415397085801 -1 L 220.31608235429005 -1 Z"/><text text-anchor="middle" pointer-events="none" font-size="8px" fill="#000000" x="193.87076985429005" y="3" font-family="Helvetica Neue, Helvetica, Arial, sans-serif">RELATES_TO</text></g><g class="relationship" transform="translate(118.19150646254086 519.3096218900897) rotate(312.6712523808445)"><path class="b-outline" fill="#4C8EDA" stroke="none" d="M 32.5 1 L 34.17351640697793 1 L 34.17351640697793 -1 L 32.5 -1 Z M 82.85320390697794 1 L 84.52672031395586 1 L 84.52672031395586 4 L 92.52672031395586 0 L 84.52672031395586 -4 L 84.52672031395586 -1 L 82.85320390697794 -1 Z"/><text text-anchor="middle" pointer-events="none" font-size="8px" fill="#000000" x="58.51336015697793" y="3" font-family="Helvetica Neue, Helvetica, Arial, sans-serif">RELATES_…</text></g><g class="relationship" transform="translate(118.19150646254086 519.3096218900897) rotate(221.1087792431914)"><path class="b-outline" fill="#4C8EDA" stroke="none" d="M 32.5 1 L 80.68453380028124 1 L 80.68453380028124 -1 L 32.5 -1 Z M 133.57515880028126 1 L 181.7596926005625 1 L 181.7596926005625 4 L 189.7596926005625 0 L 181.7596926005625 -4 L 181.7596926005625 -1 L 133.57515880028126 -1 Z"/><text text-anchor="middle" pointer-events="none" font-size="8px" fill="#000000" x="107.12984630028124" y="3" transform="rotate(180 107.12984630028124 0)" font-family="Helvetica Neue, Helvetica, Arial, sans-serif">RELATES_TO</text></g><g class="relationship" transform="translate(118.19150646254086 519.3096218900897) rotate(509.1349990952304)"><path class="b-outline" fill="#4C8EDA" stroke="none" d="M 32.5 1 L 59.57104523347934 1 L 59.57104523347934 -1 L 32.5 -1 Z M 112.46167023347934 1 L 139.53271546695868 1 L 139.53271546695868 4 L 147.53271546695868 0 L 139.53271546695868 -4 L 139.53271546695868 -1 L 112.46167023347934 -1 Z"/><text text-anchor="middle" pointer-events="none" font-size="8px" fill="#000000" x="86.01635773347934" y="3" transform="rotate(180 86.01635773347934 0)" font-family="Helvetica Neue, Helvetica, Arial, sans-serif">RELATES_TO</text></g><g class="relationship" transform="translate(118.19150646254086 519.3096218900897) rotate(184.89297276657862)"><path class="b-outline" fill="#4C8EDA" stroke="none" d="M 32.5 1 L 64.76971635996675 1 L 64.76971635996675 -1 L 32.5 -1 Z M 117.66034135996675 1 L 149.9300577199335 1 L 149.9300577199335 4 L 157.9300577199335 0 L 149.9300577199335 -4 L 149.9300577199335 -1 L 117.66034135996675 -1 Z"/><text text-anchor="middle" pointer-events="none" font-size="8px" fill="#000000" x="91.21502885996675" y="3" transform="rotate(180 91.21502885996675 0)" font-family="Helvetica Neue, Helvetica, Arial, sans-serif">RELATES_TO</text></g><g class="relationship" transform="translate(609.2887570896896 -78.37208624068231) rotate(515.2204327091304)"><path class="b-outline" fill="#4C8EDA" stroke="none" d="M 32.5 1 L 213.86712155753906 1 L 213.86712155753906 -1 L 32.5 -1 Z M 266.75774655753906 1 L 448.12486811507813 1 L 448.12486811507813 4 L 456.12486811507813 0 L 448.12486811507813 -4 L 448.12486811507813 -1 L 266.75774655753906 -1 Z"/><text text-anchor="middle" pointer-events="none" font-size="8px" fill="#000000" x="240.31243405753906" y="3" transform="rotate(180 240.31243405753906 0)" font-family="Helvetica Neue, Helvetica, Arial, sans-serif">RELATES_TO</text></g><g class="relationship" transform="translate(331.5143375256846 277.8100787750555) rotate(222.3874645880794)"><path class="b-outline" fill="#4C8EDA" stroke="none" d="M 32.5 1 L 81.8351191161071 1 L 81.8351191161071 -1 L 32.5 -1 Z M 134.72574411610708 1 L 184.0608632322142 1 L 184.0608632322142 4 L 192.0608632322142 0 L 184.0608632322142 -4 L 184.0608632322142 -1 L 134.72574411610708 -1 Z"/><text text-anchor="middle" pointer-events="none" font-size="8px" fill="#000000" x="108.2804316161071" y="3" transform="rotate(180 108.2804316161071 0)" font-family="Helvetica Neue, Helvetica, Arial, sans-serif">RELATES_TO</text></g><g class="relationship" transform="translate(479.9348915732951 481.09485604085296) rotate(190.9737092649366)"><path class="b-outline" fill="#4C8EDA" stroke="none" d="M 32.5 1 L 110.63510360710828 1 L 110.63510360710828 -1 L 32.5 -1 Z M 163.52572860710828 1 L 241.66083221421655 1 L 241.66083221421655 4 L 249.66083221421655 0 L 241.66083221421655 -4 L 241.66083221421655 -1 L 163.52572860710828 -1 Z"/><text text-anchor="middle" pointer-events="none" font-size="8px" fill="#000000" x="137.08041610710828" y="3" transform="rotate(180 137.08041610710828 0)" font-family="Helvetica Neue, Helvetica, Arial, sans-serif">RELATES_TO</text></g><g class="relationship" transform="translate(-148.08645754153306 587.5860056110654) rotate(268.57250831346727)"><path class="b-outline" fill="#4C8EDA" stroke="none" d="M 32.5 1 L 51.73015949773601 1 L 51.73015949773601 -1 L 32.5 -1 Z M 104.62078449773601 1 L 123.85094399547202 1 L 123.85094399547202 4 L 131.85094399547202 0 L 123.85094399547202 -4 L 123.85094399547202 -1 L 104.62078449773601 -1 Z"/><text text-anchor="middle" pointer-events="none" font-size="8px" fill="#000000" x="78.17547199773601" y="3" transform="rotate(180 78.17547199773601 0)" font-family="Helvetica Neue, Helvetica, Arial, sans-serif">RELATES_TO</text></g><g class="relationship" transform="translate(759.4652538534382 149.18957705715212) rotate(483.8367254670491)"><path class="b-outline" fill="#4C8EDA" stroke="none" d="M 32.5 1 L 92.50576943692096 1 L 92.50576943692096 -1 L 32.5 -1 Z M 145.39639443692096 1 L 205.4021638738419 1 L 205.4021638738419 4 L 213.4021638738419 0 L 205.4021638738419 -4 L 205.4021638738419 -1 L 145.39639443692096 -1 Z"/><text text-anchor="middle" pointer-events="none" font-size="8px" fill="#000000" x="118.95108193692096" y="3" transform="rotate(180 118.95108193692096 0)" font-family="Helvetica Neue, Helvetica, Arial, sans-serif">RELATES_TO</text></g><g class="relationship" transform="translate(622.5400078767477 353.4427317746757) rotate(470.5048835144632)"><path class="b-outline" fill="#4C8EDA" stroke="none" d="M 32.5 1 L 33.425279611519244 1 L 33.425279611519244 -1 L 32.5 -1 Z M 73.90184211151924 1 L 74.82712172303849 1 L 74.82712172303849 4 L 82.82712172303849 0 L 74.82712172303849 -4 L 74.82712172303849 -1 L 73.90184211151924 -1 Z"/><text text-anchor="middle" pointer-events="none" font-size="8px" fill="#000000" x="53.663560861519244" y="3" transform="rotate(180 53.663560861519244 0)" font-family="Helvetica Neue, Helvetica, Arial, sans-serif">RELATE…</text></g><g class="relationship" transform="translate(609.2887570896896 -78.37208624068231) rotate(416.5776795199305)"><path class="b-outline" fill="#4C8EDA" stroke="none" d="M 32.5 1 L 105.8790165677687 1 L 105.8790165677687 -1 L 32.5 -1 Z M 158.7696415677687 1 L 232.1486581355374 1 L 232.1486581355374 4 L 240.1486581355374 0 L 232.1486581355374 -4 L 232.1486581355374 -1 L 158.7696415677687 -1 Z"/><text text-anchor="middle" pointer-events="none" font-size="8px" fill="#000000" x="132.3243290677687" y="3" font-family="Helvetica Neue, Helvetica, Arial, sans-serif">RELATES_TO</text></g><g class="relationship" transform="translate(479.9348915732951 481.09485604085296) rotate(349.12713894601006)"><path class="b-outline" fill="#4C8EDA" stroke="none" d="M 32.5 1 L 34.92073845545646 1 L 34.92073845545646 -1 L 32.5 -1 Z M 61.15511345545646 1 L 63.57585191091292 1 L 63.57585191091292 4 L 71.57585191091292 0 L 63.57585191091292 -4 L 63.57585191091292 -1 L 61.15511345545646 -1 Z"/><text text-anchor="middle" pointer-events="none" font-size="8px" fill="#000000" x="48.03792595545646" y="3" font-family="Helvetica Neue, Helvetica, Arial, sans-serif">REL…</text></g><g class="relationship" transform="translate(690.9779576292891 573.8397112257001) rotate(225.9171079448854)"><path class="b-outline" fill="#4C8EDA" stroke="none" d="M 32.5 1 L 47.77505962250369 1 L 47.77505962250369 -1 L 32.5 -1 Z M 100.66568462250369 1 L 115.94074424500738 1 L 115.94074424500738 4 L 123.94074424500738 0 L 115.94074424500738 -4 L 115.94074424500738 -1 L 100.66568462250369 -1 Z"/><text text-anchor="middle" pointer-events="none" font-size="8px" fill="#000000" x="74.22037212250369" y="3" transform="rotate(180 74.22037212250369 0)" font-family="Helvetica Neue, Helvetica, Arial, sans-serif">RELATES_TO</text></g><g class="relationship" transform="translate(663.7220306107358 631.1264413299166) rotate(363.54474921816063)"><path class="b-outline" fill="#4C8EDA" stroke="none" d="M 32.5 1 L 50.82503527222252 1 L 50.82503527222252 -1 L 32.5 -1 Z M 103.71566027222252 1 L 122.04069554444504 1 L 122.04069554444504 4 L 130.04069554444504 0 L 122.04069554444504 -4 L 122.04069554444504 -1 L 103.71566027222252 -1 Z"/><text text-anchor="middle" pointer-events="none" font-size="8px" fill="#000000" x="77.27034777222252" y="3" font-family="Helvetica Neue, Helvetica, Arial, sans-serif">RELATES_TO</text></g><g class="relationship" transform="translate(663.7220306107358 631.1264413299166) rotate(409.2595173359616)"><path class="b-outline" fill="#4C8EDA" stroke="none" d="M 32.5 1 L 44.748185820001254 1 L 44.748185820001254 -1 L 32.5 -1 Z M 97.63881082000125 1 L 109.88699664000251 1 L 109.88699664000251 4 L 117.88699664000251 0 L 109.88699664000251 -4 L 109.88699664000251 -1 L 97.63881082000125 -1 Z"/><text text-anchor="middle" pointer-events="none" font-size="8px" fill="#000000" x="71.19349832000125" y="3" font-family="Helvetica Neue, Helvetica, Arial, sans-serif">RELATES_TO</text></g><g class="relationship" transform="translate(521.3838737130736 888.9602539787472) rotate(208.61382061400133)"><path class="b-outline" fill="#4C8EDA" stroke="none" d="M 32.5 1 L 41.79517503333301 1 L 41.79517503333301 -1 L 32.5 -1 Z M 94.68580003333301 1 L 103.98097506666602 1 L 103.98097506666602 4 L 111.98097506666602 0 L 103.98097506666602 -4 L 103.98097506666602 -1 L 94.68580003333301 -1 Z"/><text text-anchor="middle" pointer-events="none" font-size="8px" fill="#000000" x="68.24048753333301" y="3" transform="rotate(180 68.24048753333301 0)" font-family="Helvetica Neue, Helvetica, Arial, sans-serif">RELATES_TO</text></g><g class="relationship" transform="translate(188.28077243290136 16.22406791563179) rotate(373.10444535471174)"><path class="b-outline" fill="#4C8EDA" stroke="none" d="M 32.5 1 L 262.78307052120044 1 L 262.78307052120044 -1 L 32.5 -1 Z M 315.67369552120044 1 L 545.9567660424009 1 L 545.9567660424009 4 L 553.9567660424009 0 L 545.9567660424009 -4 L 545.9567660424009 -1 L 315.67369552120044 -1 Z"/><text text-anchor="middle" pointer-events="none" font-size="8px" fill="#000000" x="289.22838302120044" y="3" font-family="Helvetica Neue, Helvetica, Arial, sans-serif">RELATES_TO</text></g><g class="relationship" transform="translate(705.2678375867445 29.886611232866642) rotate(425.5684664549806)"><path class="b-outline" fill="#4C8EDA" stroke="none" d="M 32.5 1 L 35.07292462611609 1 L 35.07292462611609 -1 L 32.5 -1 Z M 87.96354962611609 1 L 90.53647425223218 1 L 90.53647425223218 4 L 98.53647425223218 0 L 90.53647425223218 -4 L 90.53647425223218 -1 L 87.96354962611609 -1 Z"/><text text-anchor="middle" pointer-events="none" font-size="8px" fill="#000000" x="61.51823712611609" y="3" font-family="Helvetica Neue, Helvetica, Arial, sans-serif">RELATES_TO</text></g><g class="relationship" transform="translate(759.4652538534382 149.18957705715212) rotate(534.2875497983234)"><path class="b-outline" fill="#4C8EDA" stroke="none" d="M 32.5 1 L 225.58060407350337 1 L 225.58060407350337 -1 L 32.5 -1 Z M 278.47122907350337 1 L 471.55183314700673 1 L 471.55183314700673 4 L 479.55183314700673 0 L 471.55183314700673 -4 L 471.55183314700673 -1 L 278.47122907350337 -1 Z"/><text text-anchor="middle" pointer-events="none" font-size="8px" fill="#000000" x="252.02591657350337" y="3" transform="rotate(180 252.02591657350337 0)" font-family="Helvetica Neue, Helvetica, Arial, sans-serif">RELATES_TO</text></g><g class="relationship" transform="translate(609.2887570896896 -78.37208624068231) rotate(408.4407164375599)"><path class="b-outline" fill="#4C8EDA" stroke="none" d="M 32.5 1 L 41.8940430952248 1 L 41.8940430952248 -1 L 32.5 -1 Z M 94.7846680952248 1 L 104.1787111904496 1 L 104.1787111904496 4 L 112.1787111904496 0 L 104.1787111904496 -4 L 104.1787111904496 -1 L 94.7846680952248 -1 Z"/><text text-anchor="middle" pointer-events="none" font-size="8px" fill="#000000" x="68.3393555952248" y="3" font-family="Helvetica Neue, Helvetica, Arial, sans-serif">RELATES_TO</text></g><g class="relationship" transform="translate(481.27301332357166 -54.994966627897156) rotate(380.75392116063085)"><path class="b-outline" fill="#4C8EDA" stroke="none" d="M 32.5 1 L 89.32380242202672 1 L 89.32380242202672 -1 L 32.5 -1 Z M 142.21442742202672 1 L 199.03822984405343 1 L 199.03822984405343 4 L 207.03822984405343 0 L 199.03822984405343 -4 L 199.03822984405343 -1 L 142.21442742202672 -1 Z"/><text text-anchor="middle" pointer-events="none" font-size="8px" fill="#000000" x="115.76911492202672" y="3" font-family="Helvetica Neue, Helvetica, Arial, sans-serif">RELATES_TO</text></g><g class="relationship" transform="translate(188.28077243290136 16.22406791563179) rotate(431.4629268246257)"><path class="b-outline" fill="#4C8EDA" stroke="none" d="M 32.5 1 L 66.55371974295367 1 L 66.55371974295367 -1 L 32.5 -1 Z M 119.44434474295367 1 L 153.49806448590735 1 L 153.49806448590735 4 L 161.49806448590735 0 L 153.49806448590735 -4 L 153.49806448590735 -1 L 119.44434474295367 -1 Z"/><text text-anchor="middle" pointer-events="none" font-size="8px" fill="#000000" x="92.99903224295367" y="3" font-family="Helvetica Neue, Helvetica, Arial, sans-serif">RELATES_TO</text></g><g class="relationship" transform="translate(188.28077243290136 16.22406791563179) rotate(483.6440070156398)"><path class="b-outline" fill="#4C8EDA" stroke="none" d="M 32.5 1 L 183.94123848506268 1 L 183.94123848506268 -1 L 32.5 -1 Z M 236.83186348506268 1 L 388.27310197012537 1 L 388.27310197012537 4 L 396.27310197012537 0 L 388.27310197012537 -4 L 388.27310197012537 -1 L 236.83186348506268 -1 Z"/><text text-anchor="middle" pointer-events="none" font-size="8px" fill="#000000" x="210.38655098506268" y="3" transform="rotate(180 210.38655098506268 0)" font-family="Helvetica Neue, Helvetica, Arial, sans-serif">RELATES_TO</text></g><g class="relationship" transform="translate(249.95628824451236 200.15715295921493) rotate(509.96285508203607)"><path class="b-outline" fill="#4C8EDA" stroke="none" d="M 32.5 1 L 142.37944770298844 1 L 142.37944770298844 -1 L 32.5 -1 Z M 195.27007270298844 1 L 305.1495204059769 1 L 305.1495204059769 4 L 313.1495204059769 0 L 305.1495204059769 -4 L 305.1495204059769 -1 L 195.27007270298844 -1 Z"/><text text-anchor="middle" pointer-events="none" font-size="8px" fill="#000000" x="168.82476020298844" y="3" transform="rotate(180 168.82476020298844 0)" font-family="Helvetica Neue, Helvetica, Arial, sans-serif">RELATES_TO</text></g></g><g class="layer nodes"><g class="node" aria-label="graph-node1432" transform="translate(555.4362554930478,165.52240237608513)"><circle class="b-outline" cx="0" cy="0" r="32.5" fill="#4C8EDA" stroke="#2870c2" stroke-width="2px"/><text class="caption" text-anchor="middle" pointer-events="none" x="0" y="0" font-size="10px" fill="#FFFFFF" font-family="Helvetica Neue, Helvetica, Arial, sans-serif"> V-DOPED</text><text class="caption" text-anchor="middle" pointer-events="none" x="0" y="10" font-size="10px" fill="#FFFFFF" font-family="Helvetica Neue, Helvetica, Arial, sans-serif"> COOOH</text></g><g class="node" aria-label="graph-node1784" transform="translate(599.8563883933616,69.25210813706568)"><circle class="b-outline" cx="0" cy="0" r="32.5" fill="#4C8EDA" stroke="#2870c2" stroke-width="2px"/><text class="caption" text-anchor="middle" pointer-events="none" x="0" y="0" font-size="10px" fill="#FFFFFF" font-family="Helvetica Neue, Helvetica, Arial, sans-serif"> WATER</text><text class="caption" text-anchor="middle" pointer-events="none" x="0" y="10" font-size="10px" fill="#FFFFFF" font-family="Helvetica Neue, Helvetica, Arial, sans-serif"> SPLITTING</text></g><g class="node" aria-label="graph-node2058" transform="translate(331.5143375256846,277.8100787750555)"><circle class="b-outline" cx="0" cy="0" r="32.5" fill="#4C8EDA" stroke="#2870c2" stroke-width="2px"/><text class="caption" text-anchor="middle" pointer-events="none" x="0" y="5" font-size="10px" fill="#FFFFFF" font-family="Helvetica Neue, Helvetica, Arial, sans-serif"> ZN0.2CO0.…</text></g><g class="node" aria-label="graph-node2059" transform="translate(191.5528564140599,598.857791924455)"><circle class="b-outline" cx="0" cy="0" r="32.5" fill="#4C8EDA" stroke="#2870c2" stroke-width="2px"/><text class="caption" text-anchor="middle" pointer-events="none" x="0" y="-5" font-size="10px" fill="#FFFFFF" font-family="Helvetica Neue, Helvetica, Arial, sans-serif"> ADSORBATE</text><text class="caption" text-anchor="middle" pointer-events="none" x="0" y="5" font-size="10px" fill="#FFFFFF" font-family="Helvetica Neue, Helvetica, Arial, sans-serif"> EVOLUTION</text><text class="caption" text-anchor="middle" pointer-events="none" x="0" y="15" font-size="10px" fill="#FFFFFF" font-family="Helvetica Neue, Helvetica, Arial, sans-serif"> MECHA…</text></g><g class="node" aria-label="graph-node2060" transform="translate(229.01722535550266,316.93729162586317)"><circle class="b-outline" cx="0" cy="0" r="32.5" fill="#4C8EDA" stroke="#2870c2" stroke-width="2px"/><text class="caption" text-anchor="middle" pointer-events="none" x="0" y="-5" font-size="10px" fill="#FFFFFF" font-family="Helvetica Neue, Helvetica, Arial, sans-serif"> LATTICE</text><text class="caption" text-anchor="middle" pointer-events="none" x="0" y="5" font-size="10px" fill="#FFFFFF" font-family="Helvetica Neue, Helvetica, Arial, sans-serif"> OXYGEN</text><text class="caption" text-anchor="middle" pointer-events="none" x="0" y="15" font-size="10px" fill="#FFFFFF" font-family="Helvetica Neue, Helvetica, Arial, sans-serif"> OXIDATI…</text></g><g class="node" aria-label="graph-node2314" transform="translate(444.61138637244625,581.5503565108826)"><circle class="b-outline" cx="0" cy="0" r="32.5" fill="#4C8EDA" stroke="#2870c2" stroke-width="2px"/><text class="caption" text-anchor="middle" pointer-events="none" x="0" y="5" font-size="10px" fill="#FFFFFF" font-family="Helvetica Neue, Helvetica, Arial, sans-serif"> CO0.875FE…</text></g><g class="node" aria-label="graph-node2316" transform="translate(-116.85902200639046,254.14519128406414)"><circle class="b-outline" cx="0" cy="0" r="32.5" fill="#4C8EDA" stroke="#2870c2" stroke-width="2px"/><text class="caption" text-anchor="middle" pointer-events="none" x="0" y="0" font-size="10px" fill="#FFFFFF" font-family="Helvetica Neue, Helvetica, Arial, sans-serif"> HYDROGEN</text><text class="caption" text-anchor="middle" pointer-events="none" x="0" y="10" font-size="10px" fill="#FFFFFF" font-family="Helvetica Neue, Helvetica, Arial, sans-serif"> ENERGY</text></g><g class="node" aria-label="graph-node2317" transform="translate(546.5955351817647,294.73163875467304)"><circle class="b-outline" cx="0" cy="0" r="32.5" fill="#4C8EDA" stroke="#2870c2" stroke-width="2px"/><text class="caption" text-anchor="middle" pointer-events="none" x="0" y="5" font-size="10px" fill="#FFFFFF" font-family="Helvetica Neue, Helvetica, Arial, sans-serif"> ELECTROCA…</text></g><g class="node" aria-label="graph-node2919" transform="translate(457.01613612285854,153.92565279312532)"><circle class="b-outline" cx="0" cy="0" r="32.5" fill="#4C8EDA" stroke="#2870c2" stroke-width="2px"/><text class="caption" text-anchor="middle" pointer-events="none" x="0" y="5" font-size="10px" fill="#FFFFFF" font-family="Helvetica Neue, Helvetica, Arial, sans-serif"> L. TANG</text></g><g class="node" aria-label="graph-node2921" transform="translate(375.2260935074962,-91.25026029293682)"><circle class="b-outline" cx="0" cy="0" r="32.5" fill="#4C8EDA" stroke="#2870c2" stroke-width="2px"/><text class="caption" text-anchor="middle" pointer-events="none" x="0" y="5" font-size="10px" fill="#FFFFFF" font-family="Helvetica Neue, Helvetica, Arial, sans-serif"> CR-COOOH</text></g><g class="node" aria-label="graph-node2949" transform="translate(355.9784685305256,172.10992207197162)"><circle class="b-outline" cx="0" cy="0" r="32.5" fill="#4C8EDA" stroke="#2870c2" stroke-width="2px"/><text class="caption" text-anchor="middle" pointer-events="none" x="0" y="5" font-size="10px" fill="#FFFFFF" font-family="Helvetica Neue, Helvetica, Arial, sans-serif"> CR SITES</text></g><g class="node" aria-label="graph-node2950" transform="translate(273.4371184703978,96.1701487814662)"><circle class="b-outline" cx="0" cy="0" r="32.5" fill="#4C8EDA" stroke="#2870c2" stroke-width="2px"/><text class="caption" text-anchor="middle" pointer-events="none" x="0" y="5" font-size="10px" fill="#FFFFFF" font-family="Helvetica Neue, Helvetica, Arial, sans-serif"> CO SITES</text></g><g class="node" aria-label="graph-node3340" transform="translate(146.21537847372556,237.89987505982006)"><circle class="b-outline" cx="0" cy="0" r="32.5" fill="#4C8EDA" stroke="#2870c2" stroke-width="2px"/><text class="caption" text-anchor="middle" pointer-events="none" x="0" y="5" font-size="10px" fill="#FFFFFF" font-family="Helvetica Neue, Helvetica, Arial, sans-serif"> NIFE-OXYH…</text></g><g class="node" aria-label="graph-node3630" transform="translate(43.75723222907001,107.6952702653688)"><circle class="b-outline" cx="0" cy="0" r="32.5" fill="#4C8EDA" stroke="#2870c2" stroke-width="2px"/><text class="caption" text-anchor="middle" pointer-events="none" x="0" y="0" font-size="10px" fill="#FFFFFF" font-family="Helvetica Neue, Helvetica, Arial, sans-serif"> WCOFE</text><text class="caption" text-anchor="middle" pointer-events="none" x="0" y="10" font-size="10px" fill="#FFFFFF" font-family="Helvetica Neue, Helvetica, Arial, sans-serif"> TRIMETAL…</text></g><g class="node" aria-label="graph-node4212" transform="translate(116.06893337017215,343.0269525478106)"><circle class="b-outline" cx="0" cy="0" r="32.5" fill="#4C8EDA" stroke="#2870c2" stroke-width="2px"/><text class="caption" text-anchor="middle" pointer-events="none" x="0" y="5" font-size="10px" fill="#FFFFFF" font-family="Helvetica Neue, Helvetica, Arial, sans-serif"> FE-COOOH…</text></g><g class="node" aria-label="graph-node4680" transform="translate(492.81977325902835,57.952635113234784)"><circle class="b-outline" cx="0" cy="0" r="32.5" fill="#4C8EDA" stroke="#2870c2" stroke-width="2px"/><text class="caption" text-anchor="middle" pointer-events="none" x="0" y="5" font-size="10px" fill="#FFFFFF" font-family="Helvetica Neue, Helvetica, Arial, sans-serif"> FE0.33CO0.…</text></g><g class="node" aria-label="graph-node5441" transform="translate(28.672117237505276,452.9012671805326)"><circle class="b-outline" cx="0" cy="0" r="32.5" fill="#4C8EDA" stroke="#2870c2" stroke-width="2px"/><text class="caption" text-anchor="middle" pointer-events="none" x="0" y="0" font-size="10px" fill="#FFFFFF" font-family="Helvetica Neue, Helvetica, Arial, sans-serif"> NI–FE</text><text class="caption" text-anchor="middle" pointer-events="none" x="0" y="10" font-size="10px" fill="#FFFFFF" font-family="Helvetica Neue, Helvetica, Arial, sans-serif"> CATALYSTS</text></g><g class="node" aria-label="graph-node5791" transform="translate(379.3613245332547,64.81041611345564)"><circle class="b-outline" cx="0" cy="0" r="32.5" fill="#4C8EDA" stroke="#2870c2" stroke-width="2px"/><text class="caption" text-anchor="middle" pointer-events="none" x="0" y="5" font-size="10px" fill="#FFFFFF" font-family="Helvetica Neue, Helvetica, Arial, sans-serif"> CEFEOXHY</text></g><g class="node" aria-label="graph-node2319" transform="translate(658.3927506381124,243.70502502120831)"><circle class="b-outline" cx="0" cy="0" r="32.5" fill="#4C8EDA" stroke="#2870c2" stroke-width="2px"/><text class="caption" text-anchor="middle" pointer-events="none" x="0" y="-5" font-size="10px" fill="#FFFFFF" font-family="Helvetica Neue, Helvetica, Arial, sans-serif"> IRON</text><text class="caption" text-anchor="middle" pointer-events="none" x="0" y="5" font-size="10px" fill="#FFFFFF" font-family="Helvetica Neue, Helvetica, Arial, sans-serif"> (FE)-BASED</text><text class="caption" text-anchor="middle" pointer-events="none" x="0" y="15" font-size="10px" fill="#FFFFFF" font-family="Helvetica Neue, Helvetica, Arial, sans-serif"> MATERI…</text></g><g class="node" aria-label="graph-node1419" transform="translate(690.9779576292891,573.8397112257001)"><circle class="b-outline" cx="0" cy="0" r="32.5" fill="#4C8EDA" stroke="#2870c2" stroke-width="2px"/><text class="caption" text-anchor="middle" pointer-events="none" x="0" y="5" font-size="10px" fill="#FFFFFF" font-family="Helvetica Neue, Helvetica, Arial, sans-serif"> CO</text></g><g class="node" aria-label="graph-node1817" transform="translate(118.19150646254086,519.3096218900897)"><circle class="b-outline" cx="0" cy="0" r="32.5" fill="#4C8EDA" stroke="#2870c2" stroke-width="2px"/><text class="caption" text-anchor="middle" pointer-events="none" x="0" y="5" font-size="10px" fill="#FFFFFF" font-family="Helvetica Neue, Helvetica, Arial, sans-serif"> KOH</text></g><g class="node" aria-label="graph-node2315" transform="translate(622.5400078767477,353.4427317746757)"><circle class="b-outline" cx="0" cy="0" r="32.5" fill="#4C8EDA" stroke="#2870c2" stroke-width="2px"/><text class="caption" text-anchor="middle" pointer-events="none" x="0" y="5" font-size="10px" fill="#FFFFFF" font-family="Helvetica Neue, Helvetica, Arial, sans-serif"> FEOOH/CC</text></g><g class="node" aria-label="graph-node2332" transform="translate(299.67399459234827,622.9631698644883)"><circle class="b-outline" cx="0" cy="0" r="32.5" fill="#4C8EDA" stroke="#2870c2" stroke-width="2px"/><text class="caption" text-anchor="middle" pointer-events="none" x="0" y="5" font-size="10px" fill="#FFFFFF" font-family="Helvetica Neue, Helvetica, Arial, sans-serif"> CHEMPLUS…</text></g><g class="node" aria-label="graph-node2336" transform="translate(502.6466151343632,787.0702605912435)"><circle class="b-outline" cx="0" cy="0" r="32.5" fill="#4C8EDA" stroke="#2870c2" stroke-width="2px"/><text class="caption" text-anchor="middle" pointer-events="none" x="0" y="0" font-size="10px" fill="#FFFFFF" font-family="Helvetica Neue, Helvetica, Arial, sans-serif"> JCPDS NO.</text><text class="caption" text-anchor="middle" pointer-events="none" x="0" y="10" font-size="10px" fill="#FFFFFF" font-family="Helvetica Neue, Helvetica, Arial, sans-serif"> 73-1213</text></g><g class="node" aria-label="graph-node2337" transform="translate(569.0800681665013,696.4779061433691)"><circle class="b-outline" cx="0" cy="0" r="32.5" fill="#4C8EDA" stroke="#2870c2" stroke-width="2px"/><text class="caption" text-anchor="middle" pointer-events="none" x="0" y="0" font-size="10px" fill="#FFFFFF" font-family="Helvetica Neue, Helvetica, Arial, sans-serif"> JCPDS NO.</text><text class="caption" text-anchor="middle" pointer-events="none" x="0" y="10" font-size="10px" fill="#FFFFFF" font-family="Helvetica Neue, Helvetica, Arial, sans-serif"> 34-1266</text></g><g class="node" aria-label="graph-node2338" transform="translate(440.68858234036276,265.10700928798536)"><circle class="b-outline" cx="0" cy="0" r="32.5" fill="#4C8EDA" stroke="#2870c2" stroke-width="2px"/><text class="caption" text-anchor="middle" pointer-events="none" x="0" y="5" font-size="10px" fill="#FFFFFF" font-family="Helvetica Neue, Helvetica, Arial, sans-serif"> COXFE1-XO…</text></g><g class="node" aria-label="graph-node2342" transform="translate(570.973846853516,581.1108408759295)"><circle class="b-outline" cx="0" cy="0" r="32.5" fill="#4C8EDA" stroke="#2870c2" stroke-width="2px"/><text class="caption" text-anchor="middle" pointer-events="none" x="0" y="5" font-size="10px" fill="#FFFFFF" font-family="Helvetica Neue, Helvetica, Arial, sans-serif"> CO0.875FE…</text></g><g class="node" aria-label="graph-node2351" transform="translate(394.5487239163138,819.7677910059056)"><circle class="b-outline" cx="0" cy="0" r="32.5" fill="#4C8EDA" stroke="#2870c2" stroke-width="2px"/><text class="caption" text-anchor="middle" pointer-events="none" x="0" y="5" font-size="10px" fill="#FFFFFF" font-family="Helvetica Neue, Helvetica, Arial, sans-serif"> RUO2/CC</text></g><g class="node" aria-label="graph-node2352" transform="translate(450.0243199969664,689.5369700051065)"><circle class="b-outline" cx="0" cy="0" r="32.5" fill="#4C8EDA" stroke="#2870c2" stroke-width="2px"/><text class="caption" text-anchor="middle" pointer-events="none" x="0" y="5" font-size="10px" fill="#FFFFFF" font-family="Helvetica Neue, Helvetica, Arial, sans-serif"> CO0.75FE0.…</text></g><g class="node" aria-label="graph-node2353" transform="translate(807.2527923561273,505.13347943717145)"><circle class="b-outline" cx="0" cy="0" r="32.5" fill="#4C8EDA" stroke="#2870c2" stroke-width="2px"/><text class="caption" text-anchor="middle" pointer-events="none" x="0" y="5" font-size="10px" fill="#FFFFFF" font-family="Helvetica Neue, Helvetica, Arial, sans-serif"> CO0.17FE0.…</text></g><g class="node" aria-label="graph-node2354" transform="translate(788.9268122505312,400.0665670522795)"><circle class="b-outline" cx="0" cy="0" r="32.5" fill="#4C8EDA" stroke="#2870c2" stroke-width="2px"/><text class="caption" text-anchor="middle" pointer-events="none" x="0" y="5" font-size="10px" fill="#FFFFFF" font-family="Helvetica Neue, Helvetica, Arial, sans-serif"> CO0.33FE0.…</text></g><g class="node" aria-label="graph-node2355" transform="translate(664.3977186121255,439.406292288714)"><circle class="b-outline" cx="0" cy="0" r="32.5" fill="#4C8EDA" stroke="#2870c2" stroke-width="2px"/><text class="caption" text-anchor="middle" pointer-events="none" x="0" y="5" font-size="10px" fill="#FFFFFF" font-family="Helvetica Neue, Helvetica, Arial, sans-serif"> CO0.5FE0.5…</text></g><g class="node" aria-label="graph-node2356" transform="translate(663.7220306107358,631.1264413299166)"><circle class="b-outline" cx="0" cy="0" r="32.5" fill="#4C8EDA" stroke="#2870c2" stroke-width="2px"/><text class="caption" text-anchor="middle" pointer-events="none" x="0" y="0" font-size="10px" fill="#FFFFFF" font-family="Helvetica Neue, Helvetica, Arial, sans-serif"> CARBON</text><text class="caption" text-anchor="middle" pointer-events="none" x="0" y="10" font-size="10px" fill="#FFFFFF" font-family="Helvetica Neue, Helvetica, Arial, sans-serif"> (C…</text></g><g class="node" aria-label="graph-node2361" transform="translate(272.369793435908,520.614162611361)"><circle class="b-outline" cx="0" cy="0" r="32.5" fill="#4C8EDA" stroke="#2870c2" stroke-width="2px"/><text class="caption" text-anchor="middle" pointer-events="none" x="0" y="5" font-size="10px" fill="#FFFFFF" font-family="Helvetica Neue, Helvetica, Arial, sans-serif"> CO ION</text></g><g class="node" aria-label="graph-node2362" transform="translate(223.44902040971564,705.1317805788048)"><circle class="b-outline" cx="0" cy="0" r="32.5" fill="#4C8EDA" stroke="#2870c2" stroke-width="2px"/><text class="caption" text-anchor="middle" pointer-events="none" x="0" y="0" font-size="10px" fill="#FFFFFF" font-family="Helvetica Neue, Helvetica, Arial, sans-serif"> OER</text><text class="caption" text-anchor="middle" pointer-events="none" x="0" y="10" font-size="10px" fill="#FFFFFF" font-family="Helvetica Neue, Helvetica, Arial, sans-serif"> PROCESS</text></g><g class="node" aria-label="graph-node2363" transform="translate(271.05999158856775,810.7956830096184)"><circle class="b-outline" cx="0" cy="0" r="32.5" fill="#4C8EDA" stroke="#2870c2" stroke-width="2px"/><text class="caption" text-anchor="middle" pointer-events="none" x="0" y="5" font-size="10px" fill="#FFFFFF" font-family="Helvetica Neue, Helvetica, Arial, sans-serif"> LSV</text></g><g class="node" aria-label="graph-node2365" transform="translate(312.7948361446782,415.2593196693546)"><circle class="b-outline" cx="0" cy="0" r="32.5" fill="#4C8EDA" stroke="#2870c2" stroke-width="2px"/><text class="caption" text-anchor="middle" pointer-events="none" x="0" y="5" font-size="10px" fill="#FFFFFF" font-family="Helvetica Neue, Helvetica, Arial, sans-serif"> ECS</text></g><g class="node" aria-label="graph-node2366" transform="translate(340.8020967293293,721.2331902946254)"><circle class="b-outline" cx="0" cy="0" r="32.5" fill="#4C8EDA" stroke="#2870c2" stroke-width="2px"/><text class="caption" text-anchor="middle" pointer-events="none" x="0" y="5" font-size="10px" fill="#FFFFFF" font-family="Helvetica Neue, Helvetica, Arial, sans-serif"> ELECTROLY…</text></g><g class="node" aria-label="graph-node1782" transform="translate(-148.08645754153306,587.5860056110654)"><circle class="b-outline" cx="0" cy="0" r="32.5" fill="#4C8EDA" stroke="#2870c2" stroke-width="2px"/><text class="caption" text-anchor="middle" pointer-events="none" x="0" y="5" font-size="10px" fill="#FFFFFF" font-family="Helvetica Neue, Helvetica, Arial, sans-serif"> CO0.54FE0.…</text></g><g class="node" aria-label="graph-node1816" transform="translate(-152.18074402272777,423.2860676609472)"><circle class="b-outline" cx="0" cy="0" r="32.5" fill="#4C8EDA" stroke="#2870c2" stroke-width="2px"/><text class="caption" text-anchor="middle" pointer-events="none" x="0" y="5" font-size="10px" fill="#FFFFFF" font-family="Helvetica Neue, Helvetica, Arial, sans-serif"> RRDE</text></g><g class="node" aria-label="graph-node2135" transform="translate(165.6530440186953,126.42443674852262)"><circle class="b-outline" cx="0" cy="0" r="32.5" fill="#4C8EDA" stroke="#2870c2" stroke-width="2px"/><text class="caption" text-anchor="middle" pointer-events="none" x="0" y="5" font-size="10px" fill="#FFFFFF" font-family="Helvetica Neue, Helvetica, Arial, sans-serif"> TMAOH</text></g><g class="node" aria-label="graph-node2335" transform="translate(202.9334732502653,427.3831302926598)"><circle class="b-outline" cx="0" cy="0" r="32.5" fill="#4C8EDA" stroke="#2870c2" stroke-width="2px"/><text class="caption" text-anchor="middle" pointer-events="none" x="0" y="5" font-size="10px" fill="#FFFFFF" font-family="Helvetica Neue, Helvetica, Arial, sans-serif"> CHEMPLUS…</text></g><g class="node" aria-label="graph-node4279" transform="translate(-36.344695350108275,611.6694668863167)"><circle class="b-outline" cx="0" cy="0" r="32.5" fill="#4C8EDA" stroke="#2870c2" stroke-width="2px"/><text class="caption" text-anchor="middle" pointer-events="none" x="0" y="5" font-size="10px" fill="#FFFFFF" font-family="Helvetica Neue, Helvetica, Arial, sans-serif"> CHI 760 D</text></g><g class="node" aria-label="graph-node4531" transform="translate(-71.54457936507471,503.0669429844134)"><circle class="b-outline" cx="0" cy="0" r="32.5" fill="#4C8EDA" stroke="#2870c2" stroke-width="2px"/><text class="caption" text-anchor="middle" pointer-events="none" x="0" y="5" font-size="10px" fill="#FFFFFF" font-family="Helvetica Neue, Helvetica, Arial, sans-serif"> H2SO4</text></g><g class="node" aria-label="graph-node2345" transform="translate(582.1423915080724,461.46299652462835)"><circle class="b-outline" cx="0" cy="0" r="32.5" fill="#4C8EDA" stroke="#2870c2" stroke-width="2px"/><text class="caption" text-anchor="middle" pointer-events="none" x="0" y="5" font-size="10px" fill="#FFFFFF" font-family="Helvetica Neue, Helvetica, Arial, sans-serif"> FE</text></g><g class="node" aria-label="graph-node2665" transform="translate(761.8696835207824,745.0706688565849)"><circle class="b-outline" cx="0" cy="0" r="32.5" fill="#4C8EDA" stroke="#2870c2" stroke-width="2px"/><text class="caption" text-anchor="middle" pointer-events="none" x="0" y="0" font-size="10px" fill="#FFFFFF" font-family="Helvetica Neue, Helvetica, Arial, sans-serif"> Δ-FEOOH</text><text class="caption" text-anchor="middle" pointer-events="none" x="0" y="10" font-size="10px" fill="#FFFFFF" font-family="Helvetica Neue, Helvetica, Arial, sans-serif"> BULK</text></g><g class="node" aria-label="graph-node1383" transform="translate(419.4905012708206,387.6046828912984)"><circle class="b-outline" cx="0" cy="0" r="32.5" fill="#4C8EDA" stroke="#2870c2" stroke-width="2px"/><text class="caption" text-anchor="middle" pointer-events="none" x="0" y="-10" font-size="10px" fill="#FFFFFF" font-family="Helvetica Neue, Helvetica, Arial, sans-serif"> OXYGEN</text><text class="caption" text-anchor="middle" pointer-events="none" x="0" y="0" font-size="10px" fill="#FFFFFF" font-family="Helvetica Neue, Helvetica, Arial, sans-serif"> EVOLUTION</text><text class="caption" text-anchor="middle" pointer-events="none" x="0" y="10" font-size="10px" fill="#FFFFFF" font-family="Helvetica Neue, Helvetica, Arial, sans-serif"> REACTION</text><text class="caption" text-anchor="middle" pointer-events="none" x="0" y="20" font-size="10px" fill="#FFFFFF" font-family="Helvetica Neue, Helvetica, Arial, sans-serif"> (OER)</text></g><g class="node" aria-label="graph-node2318" transform="translate(296.74048366120667,-12.997166523126689)"><circle class="b-outline" cx="0" cy="0" r="32.5" fill="#4C8EDA" stroke="#2870c2" stroke-width="2px"/><text class="caption" text-anchor="middle" pointer-events="none" x="0" y="5" font-size="10px" fill="#FFFFFF" font-family="Helvetica Neue, Helvetica, Arial, sans-serif"> RUO2</text></g><g class="node" aria-label="graph-node2608" transform="translate(37.494092366487536,222.46343866311986)"><circle class="b-outline" cx="0" cy="0" r="32.5" fill="#4C8EDA" stroke="#2870c2" stroke-width="2px"/><text class="caption" text-anchor="middle" pointer-events="none" x="0" y="0" font-size="10px" fill="#FFFFFF" font-family="Helvetica Neue, Helvetica, Arial, sans-serif"> WATER</text><text class="caption" text-anchor="middle" pointer-events="none" x="0" y="10" font-size="10px" fill="#FFFFFF" font-family="Helvetica Neue, Helvetica, Arial, sans-serif"> ELECTROL…</text></g><g class="node" aria-label="graph-node2107" transform="translate(759.4652538534382,149.18957705715212)"><circle class="b-outline" cx="0" cy="0" r="32.5" fill="#4C8EDA" stroke="#2870c2" stroke-width="2px"/><text class="caption" text-anchor="middle" pointer-events="none" x="0" y="-5" font-size="10px" fill="#FFFFFF" font-family="Helvetica Neue, Helvetica, Arial, sans-serif"> SCANNING</text><text class="caption" text-anchor="middle" pointer-events="none" x="0" y="5" font-size="10px" fill="#FFFFFF" font-family="Helvetica Neue, Helvetica, Arial, sans-serif"> ELECTRON</text><text class="caption" text-anchor="middle" pointer-events="none" x="0" y="15" font-size="10px" fill="#FFFFFF" font-family="Helvetica Neue, Helvetica, Arial, sans-serif"> MICROS…</text></g><g class="node" aria-label="graph-node1808" transform="translate(188.28077243290136,16.22406791563179)"><circle class="b-outline" cx="0" cy="0" r="32.5" fill="#4C8EDA" stroke="#2870c2" stroke-width="2px"/><text class="caption" text-anchor="middle" pointer-events="none" x="0" y="0" font-size="10px" fill="#FFFFFF" font-family="Helvetica Neue, Helvetica, Arial, sans-serif"> X-RAY</text><text class="caption" text-anchor="middle" pointer-events="none" x="0" y="10" font-size="10px" fill="#FFFFFF" font-family="Helvetica Neue, Helvetica, Arial, sans-serif"> PHOTOEL…</text></g><g class="node" aria-label="graph-node2106" transform="translate(705.2678375867445,29.886611232866642)"><circle class="b-outline" cx="0" cy="0" r="32.5" fill="#4C8EDA" stroke="#2870c2" stroke-width="2px"/><text class="caption" text-anchor="middle" pointer-events="none" x="0" y="5" font-size="10px" fill="#FFFFFF" font-family="Helvetica Neue, Helvetica, Arial, sans-serif"> ZNXCO1−X…</text></g><g class="node" aria-label="graph-node2934" transform="translate(249.95628824451236,200.15715295921493)"><circle class="b-outline" cx="0" cy="0" r="32.5" fill="#4C8EDA" stroke="#2870c2" stroke-width="2px"/><text class="caption" text-anchor="middle" pointer-events="none" x="0" y="5" font-size="10px" fill="#FFFFFF" font-family="Helvetica Neue, Helvetica, Arial, sans-serif"> TRANSMIS…</text></g><g class="node" aria-label="graph-node1400" transform="translate(609.2887570896896,-78.37208624068231)"><circle class="b-outline" cx="0" cy="0" r="32.5" fill="#4C8EDA" stroke="#2870c2" stroke-width="2px"/><text class="caption" text-anchor="middle" pointer-events="none" x="0" y="5" font-size="10px" fill="#FFFFFF" font-family="Helvetica Neue, Helvetica, Arial, sans-serif"> COOOH</text></g><g class="node" aria-label="graph-node2339" transform="translate(521.3838737130736,888.9602539787472)"><circle class="b-outline" cx="0" cy="0" r="32.5" fill="#4C8EDA" stroke="#2870c2" stroke-width="2px"/><text class="caption" text-anchor="middle" pointer-events="none" x="0" y="5" font-size="10px" fill="#FFFFFF" font-family="Helvetica Neue, Helvetica, Arial, sans-serif"> COOOH/CC</text></g><g class="node" aria-label="graph-node1424" transform="translate(481.27301332357166,-54.994966627897156)"><circle class="b-outline" cx="0" cy="0" r="32.5" fill="#4C8EDA" stroke="#2870c2" stroke-width="2px"/><text class="caption" text-anchor="middle" pointer-events="none" x="0" y="5" font-size="10px" fill="#FFFFFF" font-family="Helvetica Neue, Helvetica, Arial, sans-serif"> IRO2</text></g><g class="node" aria-label="graph-node2646" transform="translate(825.9517555387599,641.1760213136577)"><circle class="b-outline" cx="0" cy="0" r="32.5" fill="#4C8EDA" stroke="#2870c2" stroke-width="2px"/><text class="caption" text-anchor="middle" pointer-events="none" x="0" y="0" font-size="10px" fill="#FFFFFF" font-family="Helvetica Neue, Helvetica, Arial, sans-serif"> Δ-FEOOH</text><text class="caption" text-anchor="middle" pointer-events="none" x="0" y="10" font-size="10px" fill="#FFFFFF" font-family="Helvetica Neue, Helvetica, Arial, sans-serif"> NSS</text></g><g class="node" aria-label="graph-node1783" transform="translate(479.9348915732951,481.09485604085296)"><circle class="b-outline" cx="0" cy="0" r="32.5" fill="#4C8EDA" stroke="#2870c2" stroke-width="2px"/><text class="caption" text-anchor="middle" pointer-events="none" x="0" y="5" font-size="10px" fill="#FFFFFF" font-family="Helvetica Neue, Helvetica, Arial, sans-serif"> FEOOH</text></g><g class="node" aria-label="graph-node3168" transform="translate(-49.27287184969678,373.17594010730465)"><circle class="b-outline" cx="0" cy="0" r="32.5" fill="#4C8EDA" stroke="#2870c2" stroke-width="2px"/><text class="caption" text-anchor="middle" pointer-events="none" x="0" y="5" font-size="10px" fill="#FFFFFF" font-family="Helvetica Neue, Helvetica, Arial, sans-serif"> FEOOH@FE…</text></g></g></svg>